<?xml version="1.0" encoding="utf-8"?>
<!-- Generator: Adobe Illustrator 24.2.1, SVG Export Plug-In . SVG Version: 6.00 Build 0)  -->
<svg version="1.1" id="Calque_1" xmlns="http://www.w3.org/2000/svg" xmlns:xlink="http://www.w3.org/1999/xlink" x="0px" y="0px"
	 viewBox="0 0 500 500" style="enable-background:new 0 0 500 500;" xml:space="preserve">
<style type="text/css">
	.st0{fill:#90CAF9;}
	.st1{opacity:0.7;}
	.st2{fill:#FFFFFF;}
	.st3{opacity:0.8;fill:#FFFFFF;enable-background:new    ;}
	.st4{fill:#263238;}
	.st5{fill:#FFFFFF;stroke:#263238;stroke-width:1.3374;stroke-miterlimit:10;}
	.st6{fill:#90CAF9;stroke:#263238;stroke-width:1.3374;stroke-linecap:round;stroke-linejoin:round;}
	.st7{opacity:0.3;fill:#FFFFFF;enable-background:new    ;}
	.st8{opacity:0.2;enable-background:new    ;}
	.st9{fill:#FFFFFF;stroke:#263238;stroke-width:1.004;stroke-miterlimit:10;}
	.st10{fill:#FFFFFF;stroke:#263238;stroke-width:1.004;stroke-linejoin:round;}
	.st11{clip-path:url(#SVGID_2_);}
	.st12{opacity:0.5;fill:#90CAF9;stroke:#263238;stroke-width:1.004;stroke-miterlimit:10;enable-background:new    ;}
	.st13{fill:none;stroke:#263238;stroke-width:1.004;stroke-miterlimit:10;}
	.st14{clip-path:url(#SVGID_4_);}
	.st15{opacity:0.5;fill:#90CAF9;stroke:#263238;stroke-width:1.004;stroke-linejoin:round;enable-background:new    ;}
	.st16{fill:none;stroke:#263238;stroke-width:1.004;stroke-linejoin:round;}
	.st17{clip-path:url(#SVGID_6_);}
	.st18{opacity:0.5;fill:#90CAF9;enable-background:new    ;}
	.st19{clip-path:url(#SVGID_8_);}
	.st20{fill:none;stroke:#263238;stroke-miterlimit:10;}
	.st21{fill:none;stroke:#263238;stroke-linecap:round;stroke-miterlimit:10;}
	.st22{fill:none;stroke:#FFFFFF;stroke-width:0.5;stroke-linecap:round;stroke-linejoin:round;}
	.st23{fill:#90CAF9;stroke:#263238;stroke-width:1.004;stroke-miterlimit:10;}
	.st24{clip-path:url(#SVGID_10_);}
</style>
<g>
	<g id="freepik--background-simple--inject-1--inject-9">
		<path class="st0" d="M409.1,103c-24.9-56.7-84.6-78.1-131.7-40c-18.4,14.9-29.9,38.5-52.4,48c-21.1,8.9-47.9,6.3-70.8,11.1
			C105.5,132.3,40,171,45,230.6c2.2,26.1,19.8,55.1,28.5,79.6c10,28.1,16,63.3,42.5,80.1c45.4,28.9,100.1,5.3,141-18
			c22-12.5,34.1-20.2,57.8-15.9c21.9,4,41.7,18,63.1,1.4c16.1-12.5,17.4-37.7,30.9-52.6c15.2-16.7,30.6-17.9,38.6-43.1
			c9.6-30.5-4.5-49.5-14.1-76.8S420.9,129.7,409.1,103z"/>
		<g class="st1">
			<path class="st2" d="M409.1,103c-24.9-56.7-84.6-78.1-131.7-40c-18.4,14.9-29.9,38.5-52.4,48c-21.1,8.9-47.9,6.3-70.8,11.1
				C105.5,132.3,40,171,45,230.6c2.2,26.1,19.8,55.1,28.5,79.6c10,28.1,16,63.3,42.5,80.1c45.4,28.9,100.1,5.3,141-18
				c22-12.5,34.1-20.2,57.8-15.9c21.9,4,41.7,18,63.1,1.4c16.1-12.5,17.4-37.7,30.9-52.6c15.2-16.7,30.6-17.9,38.6-43.1
				c9.6-30.5-4.5-49.5-14.1-76.8S420.9,129.7,409.1,103z"/>
		</g>
	</g>
	<g id="freepik--Shadow--inject-1--inject-9">
		<ellipse class="st0" cx="219.8" cy="428" rx="154.6" ry="9.6"/>
		<ellipse class="st3" cx="219.8" cy="428" rx="154.6" ry="9.6"/>
	</g>
	<g id="freepik--Device--inject-1--inject-9">
		<path class="st4" d="M180.5,61.9H336c10.7,0,19.4,8.7,19.4,19.4v328.1c0,10.7-8.7,19.4-19.4,19.4H180.5
			c-10.7,0-19.4-8.7-19.4-19.4V81.3C161.1,70.6,169.8,61.9,180.5,61.9z"/>
		<rect x="169.7" y="102.2" class="st5" width="177" height="286.4"/>
		<circle class="st0" cx="258.3" cy="191" r="38.4"/>
		<path class="st0" d="M308.6,370.5H207.9c-0.9,0-1.7-0.8-1.7-1.7c0,0,0,0,0,0l0,0c0-0.9,0.8-1.7,1.7-1.7c0,0,0,0,0,0h100.7
			c0.9,0,1.7,0.8,1.7,1.7c0,0,0,0,0,0l0,0C310.4,369.8,309.6,370.5,308.6,370.5L308.6,370.5z"/>
		<path class="st0" d="M204.6,250.9h107.3c2.2,0,4,1.8,4,4v12.7c0,2.2-1.8,4-4,4H204.6c-2.2,0-4-1.8-4-4v-12.7
			C200.6,252.7,202.4,250.9,204.6,250.9z"/>
		<path class="st0" d="M204.6,289.6h107.3c2.2,0,4,1.8,4,4v12.6c0,2.2-1.8,4-4,4H204.6c-2.2,0-4-1.8-4-4v-12.6
			C200.6,291.4,202.4,289.6,204.6,289.6z"/>
		<path class="st4" d="M277.4,210.1l-11.3-6.5v-5.4c1.6-2,2.8-4.3,3.5-6.8c0.4,0.1,0.8,0.2,1.2,0.2c1.4,0,2.3-4.3,2.4-7.4
			c1.6-3.4-0.6-5.5-0.6-5.5s0.9-0.9,1.5-4.6s-2.1-2.1-4.3-5.5s-3.7-7.1-10.8-7.1c-4-0.1-7.6,2.2-9.2,5.8c-1.8,0-3.5,0.2-5.2,0.6
			c-2.2,0.6-2.8,7.7-0.9,10.4c0.8,1.5,1.3,3.2,1.3,4.9c-0.5-0.6-1-0.8-1.3,0.6c-0.6,3.1,1.9,7.4,1.9,7.4l1.3-0.4
			c0.6,2.7,1.9,5.1,3.6,7.2v5.4l-11.3,6.5c-2.7,1.5-4.3,4.4-4.3,7.5v3.7c13.8,10.7,33.1,10.7,46.9,0v-3.7
			C281.7,214.6,280,211.7,277.4,210.1z"/>
		<path class="st4" d="M215.2,305.1c-0.3,0-0.5-0.1-0.7-0.3c-0.2-0.2-0.3-0.4-0.3-0.7c0-0.2,0.1-0.4,0.1-0.5l1.8-2.9l-3.5,0.1
			c-0.3,0-0.5-0.1-0.7-0.3c-0.3-0.4-0.3-1,0-1.3c0.2-0.2,0.5-0.3,0.7-0.3l3.5,0.1l-1.8-2.9c-0.1-0.2-0.1-0.3-0.1-0.5
			c0-0.3,0.1-0.5,0.3-0.7c0.2-0.2,0.4-0.3,0.7-0.3c0.3,0,0.7,0.2,0.8,0.5l1.7,3.1l1.7-3.1c0.2-0.3,0.5-0.5,0.9-0.6
			c0.3,0,0.5,0.1,0.7,0.3c0.2,0.2,0.3,0.4,0.3,0.7c0,0.2,0,0.3-0.1,0.5l-1.8,2.9l3.5-0.1c0.3,0,0.5,0.1,0.7,0.3
			c0.2,0.2,0.3,0.4,0.3,0.7c0,0.2-0.1,0.5-0.3,0.7c-0.2,0.2-0.5,0.3-0.7,0.3l-3.5-0.1l1.8,2.9c0.1,0.2,0.2,0.3,0.1,0.5
			c0,0.6-0.4,1-1,1c-0.4,0-0.7-0.2-0.8-0.5l-1.7-3l-1.7,3C215.9,304.9,215.6,305.1,215.2,305.1z"/>
		<path class="st4" d="M231.4,305.1c-0.3,0-0.5-0.1-0.7-0.3c-0.2-0.2-0.3-0.4-0.3-0.7c0-0.2,0.1-0.4,0.1-0.5l1.8-2.9l-3.5,0.1
			c-0.3,0-0.5-0.1-0.7-0.3c-0.4-0.4-0.4-1,0-1.3c0.2-0.2,0.4-0.3,0.7-0.3l3.4,0.1l-1.8-2.9c-0.1-0.2-0.1-0.3-0.1-0.5
			c0-0.3,0.1-0.5,0.3-0.7c0.2-0.2,0.4-0.3,0.7-0.3c0.3,0,0.7,0.2,0.8,0.5l1.7,3.1l1.7-3.1c0.2-0.3,0.5-0.5,0.9-0.6
			c0.3,0,0.5,0.1,0.7,0.3c0.2,0.2,0.3,0.4,0.3,0.7c0,0.2-0.1,0.3-0.1,0.5l-1.8,2.9l3.5-0.1c0.3,0,0.5,0.1,0.7,0.3
			c0.2,0.2,0.3,0.4,0.3,0.7c0,0.2-0.1,0.5-0.3,0.7c-0.2,0.2-0.4,0.3-0.7,0.3l-3.5-0.1l1.8,2.9c0.1,0.2,0.2,0.3,0.1,0.5
			c0,0.6-0.4,1-1,1c-0.4,0-0.7-0.2-0.8-0.5l-1.7-3l-1.7,3C232.1,304.9,231.8,305.1,231.4,305.1z"/>
		<path class="st4" d="M247.6,305.1c-0.3,0-0.5-0.1-0.7-0.3c-0.2-0.2-0.3-0.4-0.3-0.7c0-0.2,0.1-0.4,0.1-0.5l1.8-2.9l-3.5,0.1
			c-0.5,0-1-0.4-1-0.9c0-0.3,0.1-0.5,0.3-0.7c0.2-0.2,0.5-0.3,0.7-0.3l3.4,0.1l-1.8-2.9c-0.1-0.2-0.1-0.3-0.1-0.5
			c0-0.3,0.1-0.5,0.3-0.7c0.2-0.2,0.4-0.3,0.7-0.3c0.3,0,0.7,0.2,0.8,0.5l1.7,3.1l1.7-3.1c0.2-0.3,0.5-0.5,0.9-0.6
			c0.3,0,0.5,0.1,0.7,0.3c0.2,0.2,0.3,0.4,0.3,0.7c0,0.2-0.1,0.3-0.1,0.5l-1.8,2.9l3.5-0.1c0.5-0.1,0.9,0.3,1,0.8c0,0,0,0.1,0,0.1
			c0,0.2-0.1,0.5-0.3,0.7c-0.2,0.2-0.5,0.3-0.7,0.3l-3.5-0.1l1.8,2.9c0.1,0.2,0.2,0.3,0.1,0.5c0,0.3-0.1,0.5-0.3,0.7
			c-0.2,0.2-0.4,0.3-0.7,0.3c-0.3,0-0.7-0.2-0.8-0.5l-1.7-3l-1.7,3C248.3,304.9,248,305.1,247.6,305.1z"/>
		<path class="st4" d="M263.9,305.1c-0.3,0-0.5-0.1-0.7-0.3c-0.2-0.2-0.3-0.4-0.3-0.7c0-0.2,0-0.4,0.1-0.5l1.8-2.9l-3.5,0.1
			c-0.3,0-0.5-0.1-0.7-0.3c-0.3-0.4-0.3-1,0-1.3c0.2-0.2,0.5-0.3,0.7-0.3l3.5,0.1l-1.8-2.9c-0.1-0.2-0.1-0.3-0.1-0.5
			c0-0.3,0.1-0.5,0.3-0.7c0.2-0.2,0.4-0.3,0.7-0.3c0.3,0,0.7,0.2,0.8,0.5l1.7,3.1l1.7-3.1c0.2-0.3,0.5-0.5,0.9-0.6
			c0.3,0,0.5,0.1,0.7,0.3c0.2,0.2,0.3,0.4,0.3,0.7c0,0.2-0.1,0.3-0.1,0.5l-1.8,2.9l3.5-0.1c0.5-0.1,0.9,0.3,1,0.8c0,0,0,0.1,0,0.1
			c0,0.2-0.1,0.5-0.3,0.7c-0.2,0.2-0.5,0.3-0.7,0.3l-3.5-0.1l1.8,2.9c0.1,0.2,0.2,0.3,0.1,0.5c0,0.3-0.1,0.5-0.3,0.7
			c-0.2,0.2-0.4,0.3-0.7,0.3c-0.3,0-0.7-0.2-0.8-0.5l-1.7-3l-1.7,3C264.6,304.9,264.2,305.1,263.9,305.1z"/>
		<path class="st4" d="M280.1,305.1c-0.3,0-0.5-0.1-0.7-0.3c-0.3-0.3-0.4-0.8-0.1-1.2l1.8-2.9l-3.5,0.1c-0.3,0-0.5-0.1-0.7-0.3
			c-0.3-0.4-0.3-1,0-1.3c0.2-0.2,0.5-0.3,0.7-0.3l3.5,0.1l-1.8-2.9c-0.1-0.2-0.1-0.3-0.1-0.5c0-0.3,0.1-0.5,0.3-0.7
			c0.2-0.2,0.4-0.3,0.7-0.3c0.3,0,0.7,0.2,0.8,0.5l1.7,3.1l1.7-3.1c0.2-0.3,0.5-0.5,0.9-0.6c0.3,0,0.5,0.1,0.7,0.3
			c0.2,0.2,0.3,0.4,0.3,0.7c0,0.2-0.1,0.3-0.1,0.5l-1.8,2.9l3.5-0.1c0.5-0.1,0.9,0.3,1,0.8c0,0,0,0.1,0,0.1c0,0.2-0.1,0.5-0.3,0.7
			c-0.2,0.2-0.5,0.3-0.7,0.3l-3.5-0.1l1.8,2.9c0.1,0.2,0.2,0.3,0.1,0.5c0,0.3-0.1,0.5-0.3,0.7c-0.2,0.2-0.4,0.3-0.7,0.3
			c-0.3,0-0.7-0.2-0.8-0.5l-1.7-3l-1.7,3C280.8,304.9,280.5,305.1,280.1,305.1z"/>
		<path class="st4" d="M296.3,305.1c-0.3,0-0.5-0.1-0.7-0.3c-0.2-0.2-0.3-0.4-0.3-0.7c0-0.2,0.1-0.4,0.1-0.5l1.8-2.9l-3.5,0.1
			c-0.5,0-1-0.3-1-0.9c0,0,0-0.1,0-0.1c0-0.2,0.1-0.5,0.3-0.7c0.2-0.2,0.5-0.3,0.7-0.3l3.5,0.1l-1.8-2.9c-0.1-0.2-0.1-0.3-0.1-0.5
			c0-0.3,0.1-0.5,0.3-0.7c0.2-0.2,0.4-0.3,0.7-0.3c0.3,0,0.7,0.2,0.8,0.5l1.7,3.1l1.7-3.1c0.2-0.3,0.5-0.5,0.9-0.6
			c0.3,0,0.5,0.1,0.7,0.3c0.2,0.2,0.3,0.4,0.3,0.7c0,0.2,0,0.3-0.1,0.5l-1.8,2.9l3.5-0.1c0.3,0,0.5,0.1,0.7,0.3
			c0.2,0.2,0.3,0.4,0.3,0.7c0,0.2-0.1,0.5-0.3,0.7c-0.2,0.2-0.5,0.3-0.7,0.3l-3.5-0.1l1.8,2.9c0.1,0.2,0.2,0.3,0.1,0.5
			c0,0.3-0.1,0.5-0.3,0.7c-0.2,0.2-0.4,0.3-0.7,0.3c-0.3,0-0.7-0.2-0.8-0.5l-1.7-3l-1.7,3C297,304.9,296.7,305.1,296.3,305.1z"/>
		<rect x="169.7" y="102.5" class="st0" width="177" height="11.1"/>
		<path class="st6" d="M277.5,82.1H239c-1.4,0-2.6-1.2-2.6-2.6l0,0c0-1.4,1.2-2.6,2.6-2.6h38.5c1.4,0,2.6,1.2,2.6,2.6l0,0
			C280.1,80.9,278.9,82.1,277.5,82.1z"/>
		<path class="st0" d="M268.8,404.7c0-5.8-4.7-10.5-10.5-10.5s-10.5,4.7-10.5,10.5c0,5.8,4.7,10.5,10.5,10.5c0,0,0,0,0,0
			C264.1,415.2,268.7,410.5,268.8,404.7z"/>
		<rect x="252.9" y="399.4" class="st6" width="10.6" height="10.6"/>
	</g>
	<g id="freepik--Plant--inject-1--inject-9">
		<path class="st0" d="M385,284c0,0-13.9-35.4-1.5-39.6c12.9-4.4,12.4,19,11.9,30.4c-1,24.4-3.7,28.9-5.8,22.9L385,284z
			 M380.8,311.6c3.8,5,4.9-0.2-2-23.6c-3.2-11-10.3-33.3-21.1-24.9c-10.4,8,14.3,37,14.3,37L380.8,311.6z M373.4,331.9
			c3.6,3.2,3.7-0.9-5-17.7c-4.1-7.9-12.7-23.9-19.7-16c-6.8,7.6,16.3,26.2,16.3,26.2L373.4,331.9z M365.4,356.1
			c3.6,3.3,3.7-0.9-5-17.7c-4.1-7.9-12.7-23.9-19.7-16C334,330,357,348.6,357,348.6L365.4,356.1z M388.5,306.9
			c-5.8,2.3-1.2,4.8,23.2,4.7c11.4,0,34.8-0.5,29.8-13.2c-4.8-12.2-39.5,3.3-39.5,3.3L388.5,306.9z M381.9,323.2
			c-6.2,1.1-2.1,4.4,21.8,9.2c11.2,2.3,34.2,6.4,31.9-7c-2.3-12.9-39.4-4.6-39.4-4.6L381.9,323.2z M374.4,343
			c-5.3,0.8-1.9,3.7,18.2,8.3c9.4,2.2,28.8,6.2,27.1-5.2c-1.6-11-33.2-4.8-33.2-4.8L374.4,343z M368.8,361.4
			c-5.1,1.3-1.5,3.9,19,6.3c9.6,1.1,29.3,3.1,26.4-8.1c-2.8-10.7-33.5-1.2-33.5-1.2L368.8,361.4z M398.9,287
			c-3,6.7,3.2,5.7,24.4-12.8c9.9-8.7,29.8-26.8,14.1-35.8c-15.1-8.7-31.4,33.2-31.4,33.2L398.9,287z M369.5,385.3
			c-3.2,1.9-0.1,2.6,14.5-0.3c6.8-1.4,20.7-4.4,16-10.3c-4.5-5.7-23.1,6.3-23.1,6.3L369.5,385.3z"/>
		<path class="st7" d="M385,284c0,0-13.9-35.4-1.5-39.6c12.9-4.4,12.4,19,11.9,30.4c-1,24.4-3.7,28.9-5.8,22.9L385,284z
			 M380.8,311.6c3.8,5,4.9-0.2-2-23.6c-3.2-11-10.3-33.3-21.1-24.9c-10.4,8,14.3,37,14.3,37L380.8,311.6z M373.4,331.9
			c3.6,3.2,3.7-0.9-5-17.7c-4.1-7.9-12.7-23.9-19.7-16c-6.8,7.6,16.3,26.2,16.3,26.2L373.4,331.9z M365.4,356.1
			c3.6,3.3,3.7-0.9-5-17.7c-4.1-7.9-12.7-23.9-19.7-16C334,330,357,348.6,357,348.6L365.4,356.1z M388.5,306.9
			c-5.8,2.3-1.2,4.8,23.2,4.7c11.4,0,34.8-0.5,29.8-13.2c-4.8-12.2-39.5,3.3-39.5,3.3L388.5,306.9z M381.9,323.2
			c-6.2,1.1-2.1,4.4,21.8,9.2c11.2,2.3,34.2,6.4,31.9-7c-2.3-12.9-39.4-4.6-39.4-4.6L381.9,323.2z M374.4,343
			c-5.3,0.8-1.9,3.7,18.2,8.3c9.4,2.2,28.8,6.2,27.1-5.2c-1.6-11-33.2-4.8-33.2-4.8L374.4,343z M368.8,361.4
			c-5.1,1.3-1.5,3.9,19,6.3c9.6,1.1,29.3,3.1,26.4-8.1c-2.8-10.7-33.5-1.2-33.5-1.2L368.8,361.4z M398.9,287
			c-3,6.7,3.2,5.7,24.4-12.8c9.9-8.7,29.8-26.8,14.1-35.8c-15.1-8.7-31.4,33.2-31.4,33.2L398.9,287z M369.5,385.3
			c-3.2,1.9-0.1,2.6,14.5-0.3c6.8-1.4,20.7-4.4,16-10.3c-4.5-5.7-23.1,6.3-23.1,6.3L369.5,385.3z"/>
		<path class="st0" d="M391.1,300.5l-2.4-40.4 M383.5,313.8l-15.4-34.8 M423.1,303.7l-36.8,5.3 M375.5,332.6L355.6,307 M379,324.7
			l27.5,1.4 M372.5,344.3l21,2.1 M367.4,356.8L357,341.1 M366.2,362.3l24.7,0.2 M361.2,408.7c0.3,0,0.6-0.3,0.6-0.7
			c-1.6-23.6,7.5-62.2,22.2-93.9c9.4-20.3,46-60.1,46.4-60.5c0.2-0.2,0.2-0.6,0-0.9c-0.2-0.2-0.6-0.2-0.9,0c0,0,0,0,0,0
			c-0.4,0.4-37.2,40.4-46.6,60.8C368,346,359,383.9,360.6,408.1C360.6,408.4,360.9,408.7,361.2,408.7z M391.1,301.1
			c0.3,0,0.6-0.3,0.6-0.7l-2.4-40.4c0-0.3-0.3-0.6-0.6-0.6c0,0,0,0,0,0c-0.3,0-0.6,0.3-0.6,0.7l2.4,40.4
			C390.5,300.8,390.8,301.1,391.1,301.1L391.1,301.1z M383.7,314.4c0.3-0.1,0.5-0.5,0.3-0.8l-15.4-34.8c-0.1-0.3-0.5-0.5-0.8-0.3
			s-0.5,0.5-0.3,0.8l0,0l15.4,34.8c0.1,0.2,0.3,0.4,0.6,0.4C383.5,314.5,383.6,314.4,383.7,314.4L383.7,314.4z M386.3,309.6
			l36.8-5.3c0.3,0,0.6-0.3,0.6-0.6c0-0.3-0.3-0.6-0.6-0.6c0,0-0.1,0-0.1,0l-36.8,5.3c-0.3,0-0.6,0.3-0.6,0.7
			C385.6,309.4,385.9,309.6,386.3,309.6L386.3,309.6z M375.9,333.1c0.3-0.2,0.3-0.6,0.1-0.9L356,306.6c-0.2-0.3-0.6-0.3-0.9-0.1
			c-0.3,0.2-0.3,0.6-0.1,0.9l20,25.7c0.1,0.2,0.3,0.2,0.5,0.2C375.6,333.2,375.8,333.2,375.9,333.1L375.9,333.1z M407,326.1
			c0-0.3-0.3-0.6-0.6-0.6l-27.4-1.4c-0.3,0-0.6,0.3-0.6,0.7c0,0.3,0.2,0.5,0.5,0.6l27.5,1.4l0,0C406.7,326.8,407,326.5,407,326.1
			L407,326.1z M394.1,346.5c0-0.3-0.2-0.6-0.5-0.7c0,0,0,0,0,0l-21-2.1c-0.3,0-0.6,0.2-0.7,0.6c0,0,0,0,0,0c0,0.3,0.2,0.6,0.6,0.7
			l21,2.1h0.1C393.8,347.1,394.1,346.8,394.1,346.5L394.1,346.5z M367.7,357.3c0.3-0.2,0.4-0.6,0.2-0.9l-10.4-15.7
			c-0.2-0.3-0.6-0.4-0.9-0.2c-0.3,0.2-0.4,0.6-0.2,0.9l10.4,15.7c0.1,0.2,0.3,0.3,0.5,0.3C367.5,357.4,367.7,357.4,367.7,357.3
			L367.7,357.3z M391.6,362.6c0-0.3-0.3-0.6-0.6-0.6l-24.7-0.2l0,0c-0.3,0-0.6,0.3-0.6,0.6c0,0.3,0.3,0.6,0.6,0.6c0,0,0,0,0,0
			l24.7,0.2l0,0C391.3,363.2,391.6,362.9,391.6,362.6C391.6,362.6,391.6,362.6,391.6,362.6L391.6,362.6z M358.4,399.5
			c0-0.1,4.3-11.7,16.9-14.5c0.3-0.1,0.6-0.4,0.5-0.8c-0.1-0.3-0.4-0.5-0.8-0.5c-13.4,2.9-17.8,15.2-17.8,15.3
			c-0.1,0.3,0.1,0.7,0.4,0.8h0.2C358.1,399.9,358.4,399.7,358.4,399.5L358.4,399.5z M361.2,408.7c0.3,0,0.6-0.3,0.6-0.7
			c-1.6-23.6,7.5-62.2,22.2-93.9c9.4-20.3,46-60.1,46.4-60.5c0.2-0.2,0.2-0.6,0-0.9c-0.2-0.2-0.6-0.2-0.9,0c0,0,0,0,0,0
			c-0.4,0.4-37.2,40.4-46.6,60.8C368,346,359,383.9,360.6,408.1C360.6,408.4,360.9,408.7,361.2,408.7L361.2,408.7z M391.1,301.1
			c0.3,0,0.6-0.3,0.6-0.7l-2.4-40.4c0-0.3-0.3-0.6-0.6-0.6c0,0,0,0,0,0c-0.3,0-0.6,0.3-0.6,0.7l2.4,40.4
			C390.5,300.8,390.8,301.1,391.1,301.1L391.1,301.1z M383.7,314.4c0.3-0.1,0.5-0.5,0.3-0.8l-15.4-34.8c-0.1-0.3-0.5-0.5-0.8-0.3
			s-0.5,0.5-0.3,0.8l15.4,34.8c0.1,0.2,0.3,0.4,0.6,0.4C383.5,314.5,383.6,314.4,383.7,314.4L383.7,314.4z M386.3,309.6l36.8-5.3
			c0.3,0,0.6-0.3,0.6-0.6c0-0.3-0.3-0.6-0.6-0.6c0,0-0.1,0-0.1,0l-36.8,5.3c-0.3,0-0.6,0.3-0.6,0.7
			C385.6,309.4,385.9,309.6,386.3,309.6L386.3,309.6z M375.9,333.1c0.3-0.2,0.3-0.6,0.1-0.9L356,306.6c-0.2-0.3-0.6-0.3-0.9-0.1
			c-0.3,0.2-0.3,0.6-0.1,0.9l20,25.7c0.1,0.2,0.3,0.2,0.5,0.2C375.6,333.2,375.8,333.2,375.9,333.1L375.9,333.1z M407,326.1
			c0-0.3-0.3-0.6-0.6-0.6l-27.4-1.4c-0.3,0-0.6,0.3-0.6,0.7c0,0.3,0.2,0.5,0.5,0.6l27.5,1.4l0,0C406.7,326.8,407,326.5,407,326.1
			L407,326.1z M394.1,346.5c0-0.3-0.2-0.6-0.5-0.7c0,0,0,0,0,0l-21-2.1c-0.3,0-0.6,0.2-0.7,0.6c0,0,0,0,0,0c0,0.3,0.2,0.6,0.6,0.7
			l21,2.1h0.1C393.8,347.1,394.1,346.8,394.1,346.5L394.1,346.5z M367.7,357.3c0.3-0.2,0.4-0.6,0.2-0.9l-10.4-15.7
			c-0.2-0.3-0.6-0.4-0.9-0.2c-0.3,0.2-0.4,0.6-0.2,0.9l10.4,15.7c0.1,0.2,0.3,0.3,0.5,0.3C367.5,357.4,367.7,357.4,367.7,357.3
			L367.7,357.3z M391.6,362.6c0-0.3-0.3-0.6-0.6-0.6l-24.7-0.2l0,0c-0.3,0-0.6,0.3-0.6,0.6c0,0.3,0.3,0.6,0.6,0.6c0,0,0,0,0,0
			l24.7,0.2l0,0C391.3,363.2,391.6,362.9,391.6,362.6C391.6,362.6,391.6,362.6,391.6,362.6L391.6,362.6z M358.4,399.5
			c0-0.1,4.3-11.7,16.9-14.5c0.3-0.1,0.6-0.4,0.5-0.8c-0.1-0.3-0.4-0.5-0.8-0.5c-13.4,2.9-17.8,15.2-17.8,15.3
			c-0.1,0.3,0.1,0.7,0.4,0.8h0.2C358.1,399.9,358.4,399.7,358.4,399.5L358.4,399.5z"/>
		<path class="st8" d="M391.1,300.5l-2.4-40.4 M383.5,313.8l-15.4-34.8 M423.1,303.7l-36.8,5.3 M375.5,332.6L355.6,307 M379,324.7
			l27.5,1.4 M372.5,344.3l21,2.1 M367.4,356.8L357,341.1 M366.2,362.3l24.7,0.2 M361.2,408.7c0.3,0,0.6-0.3,0.6-0.7
			c-1.6-23.6,7.5-62.2,22.2-93.9c9.4-20.3,46-60.1,46.4-60.5c0.2-0.2,0.2-0.6,0-0.9c-0.2-0.2-0.6-0.2-0.9,0c0,0,0,0,0,0
			c-0.4,0.4-37.2,40.4-46.6,60.8C368,346,359,383.9,360.6,408.1C360.6,408.4,360.9,408.7,361.2,408.7z M391.1,301.1
			c0.3,0,0.6-0.3,0.6-0.7l-2.4-40.4c0-0.3-0.3-0.6-0.6-0.6c0,0,0,0,0,0c-0.3,0-0.6,0.3-0.6,0.7l2.4,40.4
			C390.5,300.8,390.8,301.1,391.1,301.1L391.1,301.1z M383.7,314.4c0.3-0.1,0.5-0.5,0.3-0.8l-15.4-34.8c-0.1-0.3-0.5-0.5-0.8-0.3
			s-0.5,0.5-0.3,0.8l0,0l15.4,34.8c0.1,0.2,0.3,0.4,0.6,0.4C383.5,314.5,383.6,314.4,383.7,314.4L383.7,314.4z M386.3,309.6
			l36.8-5.3c0.3,0,0.6-0.3,0.6-0.6c0-0.3-0.3-0.6-0.6-0.6c0,0-0.1,0-0.1,0l-36.8,5.3c-0.3,0-0.6,0.3-0.6,0.7
			C385.6,309.4,385.9,309.6,386.3,309.6L386.3,309.6z M375.9,333.1c0.3-0.2,0.3-0.6,0.1-0.9L356,306.6c-0.2-0.3-0.6-0.3-0.9-0.1
			c-0.3,0.2-0.3,0.6-0.1,0.9l20,25.7c0.1,0.2,0.3,0.2,0.5,0.2C375.6,333.2,375.8,333.2,375.9,333.1L375.9,333.1z M407,326.1
			c0-0.3-0.3-0.6-0.6-0.6l-27.4-1.4c-0.3,0-0.6,0.3-0.6,0.7c0,0.3,0.2,0.5,0.5,0.6l27.5,1.4l0,0C406.7,326.8,407,326.5,407,326.1
			L407,326.1z M394.1,346.5c0-0.3-0.2-0.6-0.5-0.7c0,0,0,0,0,0l-21-2.1c-0.3,0-0.6,0.2-0.7,0.6c0,0,0,0,0,0c0,0.3,0.2,0.6,0.6,0.7
			l21,2.1h0.1C393.8,347.1,394.1,346.8,394.1,346.5L394.1,346.5z M367.7,357.3c0.3-0.2,0.4-0.6,0.2-0.9l-10.4-15.7
			c-0.2-0.3-0.6-0.4-0.9-0.2c-0.3,0.2-0.4,0.6-0.2,0.9l10.4,15.7c0.1,0.2,0.3,0.3,0.5,0.3C367.5,357.4,367.7,357.4,367.7,357.3
			L367.7,357.3z M391.6,362.6c0-0.3-0.3-0.6-0.6-0.6l-24.7-0.2l0,0c-0.3,0-0.6,0.3-0.6,0.6c0,0.3,0.3,0.6,0.6,0.6c0,0,0,0,0,0
			l24.7,0.2l0,0C391.3,363.2,391.6,362.9,391.6,362.6C391.6,362.6,391.6,362.6,391.6,362.6L391.6,362.6z M358.4,399.5
			c0-0.1,4.3-11.7,16.9-14.5c0.3-0.1,0.6-0.4,0.5-0.8c-0.1-0.3-0.4-0.5-0.8-0.5c-13.4,2.9-17.8,15.2-17.8,15.3
			c-0.1,0.3,0.1,0.7,0.4,0.8h0.2C358.1,399.9,358.4,399.7,358.4,399.5L358.4,399.5z M361.2,408.7c0.3,0,0.6-0.3,0.6-0.7
			c-1.6-23.6,7.5-62.2,22.2-93.9c9.4-20.3,46-60.1,46.4-60.5c0.2-0.2,0.2-0.6,0-0.9c-0.2-0.2-0.6-0.2-0.9,0c0,0,0,0,0,0
			c-0.4,0.4-37.2,40.4-46.6,60.8C368,346,359,383.9,360.6,408.1C360.6,408.4,360.9,408.7,361.2,408.7L361.2,408.7z M391.1,301.1
			c0.3,0,0.6-0.3,0.6-0.7l-2.4-40.4c0-0.3-0.3-0.6-0.6-0.6c0,0,0,0,0,0c-0.3,0-0.6,0.3-0.6,0.7l2.4,40.4
			C390.5,300.8,390.8,301.1,391.1,301.1L391.1,301.1z M383.7,314.4c0.3-0.1,0.5-0.5,0.3-0.8l-15.4-34.8c-0.1-0.3-0.5-0.5-0.8-0.3
			s-0.5,0.5-0.3,0.8l15.4,34.8c0.1,0.2,0.3,0.4,0.6,0.4C383.5,314.5,383.6,314.4,383.7,314.4L383.7,314.4z M386.3,309.6l36.8-5.3
			c0.3,0,0.6-0.3,0.6-0.6c0-0.3-0.3-0.6-0.6-0.6c0,0-0.1,0-0.1,0l-36.8,5.3c-0.3,0-0.6,0.3-0.6,0.7
			C385.6,309.4,385.9,309.6,386.3,309.6L386.3,309.6z M375.9,333.1c0.3-0.2,0.3-0.6,0.1-0.9L356,306.6c-0.2-0.3-0.6-0.3-0.9-0.1
			c-0.3,0.2-0.3,0.6-0.1,0.9l20,25.7c0.1,0.2,0.3,0.2,0.5,0.2C375.6,333.2,375.8,333.2,375.9,333.1L375.9,333.1z M407,326.1
			c0-0.3-0.3-0.6-0.6-0.6l-27.4-1.4c-0.3,0-0.6,0.3-0.6,0.7c0,0.3,0.2,0.5,0.5,0.6l27.5,1.4l0,0C406.7,326.8,407,326.5,407,326.1
			L407,326.1z M394.1,346.5c0-0.3-0.2-0.6-0.5-0.7c0,0,0,0,0,0l-21-2.1c-0.3,0-0.6,0.2-0.7,0.6c0,0,0,0,0,0c0,0.3,0.2,0.6,0.6,0.7
			l21,2.1h0.1C393.8,347.1,394.1,346.8,394.1,346.5L394.1,346.5z M367.7,357.3c0.3-0.2,0.4-0.6,0.2-0.9l-10.4-15.7
			c-0.2-0.3-0.6-0.4-0.9-0.2c-0.3,0.2-0.4,0.6-0.2,0.9l10.4,15.7c0.1,0.2,0.3,0.3,0.5,0.3C367.5,357.4,367.7,357.4,367.7,357.3
			L367.7,357.3z M391.6,362.6c0-0.3-0.3-0.6-0.6-0.6l-24.7-0.2l0,0c-0.3,0-0.6,0.3-0.6,0.6c0,0.3,0.3,0.6,0.6,0.6c0,0,0,0,0,0
			l24.7,0.2l0,0C391.3,363.2,391.6,362.9,391.6,362.6C391.6,362.6,391.6,362.6,391.6,362.6L391.6,362.6z M358.4,399.5
			c0-0.1,4.3-11.7,16.9-14.5c0.3-0.1,0.6-0.4,0.5-0.8c-0.1-0.3-0.4-0.5-0.8-0.5c-13.4,2.9-17.8,15.2-17.8,15.3
			c-0.1,0.3,0.1,0.7,0.4,0.8h0.2C358.1,399.9,358.4,399.7,358.4,399.5L358.4,399.5z"/>
		<polygon class="st0" points="377.6,391 349.3,391 349.3,396.9 351.7,396.9 356.8,428.9 370,428.9 375.1,396.9 377.6,396.9 		"/>
		<polygon class="st7" points="377.6,391 349.3,391 349.3,396.9 351.7,396.9 356.8,428.9 370,428.9 375.1,396.9 377.6,396.9 		"/>
	</g>
	<g id="freepik--Character--inject-1--inject-9">
		<polygon class="st9" points="122.7,213.8 89.8,203.1 86.8,195.3 80.1,195.1 68,192.8 69.4,195.3 84.7,206.4 88.5,208.3 
			122.9,226.3 		"/>
		<polygon class="st10" points="86.8,195.3 83.7,193.5 77.4,195.8 78.4,197 		"/>
		<polygon class="st2" points="122.7,213.8 89.8,203.1 86.8,195.3 80.1,195.1 68,192.8 69.4,195.3 84.7,206.4 88.5,208.3 
			122.9,226.3 		"/>
		<g>
			<defs>
				<polygon id="SVGID_1_" points="122.7,213.8 89.8,203.1 86.8,195.3 80.1,195.1 68,192.8 69.4,195.3 84.7,206.4 88.5,208.3 
					122.9,226.3 				"/>
			</defs>
			<clipPath id="SVGID_2_">
				<use xlink:href="#SVGID_1_"  style="overflow:visible;"/>
			</clipPath>
			<g class="st11">
				<polygon class="st12" points="122.7,213.8 89.8,203.1 86.8,195.3 80.1,195.1 68,192.8 69.4,195.3 84.7,206.4 88.5,208.3 
					122.9,226.3 				"/>
			</g>
		</g>
		<polygon class="st13" points="122.7,213.8 89.8,203.1 86.8,195.3 80.1,195.1 68,192.8 69.4,195.3 84.7,206.4 88.5,208.3 
			122.9,226.3 		"/>
		<polygon class="st2" points="86.8,195.3 83.7,193.5 77.4,195.8 78.4,197 		"/>
		<g>
			<defs>
				<polygon id="SVGID_3_" points="86.8,195.3 83.7,193.5 77.4,195.8 78.4,197 				"/>
			</defs>
			<clipPath id="SVGID_4_">
				<use xlink:href="#SVGID_3_"  style="overflow:visible;"/>
			</clipPath>
			<g class="st14">
				<polygon class="st15" points="86.8,195.3 83.7,193.5 77.4,195.8 78.4,197 				"/>
			</g>
		</g>
		<polygon class="st16" points="86.8,195.3 83.7,193.5 77.4,195.8 78.4,197 		"/>
		<path class="st2" d="M129.7,144.1c0,0-0.5,4.5,0.8,7.4s8.3,12.7,8.3,12.7l-13.2,10.6c0,0-5.5-11-6.5-12.8s-2.3-9.4,1.1-14.9
			S128.5,140,129.7,144.1z"/>
		<g>
			<defs>
				<path id="SVGID_5_" d="M129.7,144.1c0,0-0.5,4.5,0.8,7.4s8.3,12.7,8.3,12.7l-13.2,10.6c0,0-5.5-11-6.5-12.8s-2.3-9.4,1.1-14.9
					S128.5,140,129.7,144.1z"/>
			</defs>
			<clipPath id="SVGID_6_">
				<use xlink:href="#SVGID_5_"  style="overflow:visible;"/>
			</clipPath>
			<g class="st17">
				<polygon class="st18" points="122.9,158.5 128.6,170.4 125.6,174.7 119.8,164.4 				"/>
			</g>
		</g>
		<path class="st13" d="M129.7,144.1c0,0-0.5,4.5,0.8,7.4s8.3,12.7,8.3,12.7l-13.2,10.6c0,0-5.5-11-6.5-12.8s-2.3-9.4,1.1-14.9
			S128.5,140,129.7,144.1z"/>
		<path class="st2" d="M133.8,135.8c-0.8-5-6.5-15.2-15.6-14.8c-5.9,0.3-8.7,1.4-11.2,2.9c-2.1,1.2-4,2.7-5.8,4.3
			c-4.4,5.3-6,6.8-5.1,10.9c-0.1,1.6,0.2,3.3,0.8,4.8c1.4,3.6,2.3,6,3.5,7.7c-0.4,1.7-1.3,6.1-1.3,7.2s3,0.3,4.5-0.1
			c2.9,6.4,8.1,10.8,9.7,11.4c2.8,0.9,7.3-3.8,9.7-7.4s0.6-7.7,0.6-9.3s5.3-5.2,7.3-6.3S134.6,140.8,133.8,135.8z"/>
		<g>
			<defs>
				<path id="SVGID_7_" d="M133.8,135.8c-0.8-5-6.5-15.2-15.6-14.8c-5.9,0.3-8.7,1.4-11.2,2.9c-2.1,1.2-4,2.7-5.8,4.3
					c-4.4,5.3-6,6.8-5.1,10.9c-0.1,1.6,0.2,3.3,0.8,4.8c1.4,3.6,2.3,6,3.5,7.7c-0.4,1.7-1.3,6.1-1.3,7.2s3,0.3,4.5-0.1
					c2.9,6.4,8.1,10.8,9.7,11.4c2.8,0.9,7.3-3.8,9.7-7.4s0.6-7.7,0.6-9.3s5.3-5.2,7.3-6.3S134.6,140.8,133.8,135.8z"/>
			</defs>
			<clipPath id="SVGID_8_">
				<use xlink:href="#SVGID_7_"  style="overflow:visible;"/>
			</clipPath>
			<g class="st19">
				<path class="st18" d="M96,139.1c-0.1,1.6,0.2,3.3,0.8,4.8c1.4,3.6,2.3,6,3.5,7.7c-0.4,1.7-1.3,6.1-1.3,7.2s3,0.3,4.5-0.1
					c2.9,6.4,8.1,10.8,9.7,11.4c2.8,0.9,7.3-3.8,9.7-7.4c0.6-0.9,1-1.9,1.1-3c-0.1-0.5-0.2-0.8-0.2-0.8s-1.3,5.1-4,4.5s-6.7-6-9-7.8
					s-1.3-4.3-1.8-7s-7.2-5.1-7.6-6.7s1.1-8.1,1.1-8.1s2.6-3.4,2-2c-0.8,2.5-0.5,5.1,0.7,7.4c0.9,1.8,2.7,3,4.7,2.9l2.4-12.1
					l-5.2-4.3l-6,2.5C96.7,133.6,95.1,135.1,96,139.1z"/>
			</g>
		</g>
		<path class="st20" d="M133.8,135.8c-0.8-5-6.5-15.2-15.6-14.8c-5.9,0.3-8.7,1.4-11.2,2.9c-2.1,1.2-4,2.7-5.8,4.3
			c-4.4,5.3-6,6.8-5.1,10.9c-0.1,1.6,0.2,3.3,0.8,4.8c1.4,3.6,2.3,6,3.5,7.7c-0.4,1.7-1.3,6.1-1.3,7.2s3,0.3,4.5-0.1
			c2.9,6.4,8.1,10.8,9.7,11.4c2.8,0.9,7.3-3.8,9.7-7.4s0.6-7.7,0.6-9.3s5.3-5.2,7.3-6.3S134.6,140.8,133.8,135.8z"/>
		<path class="st21" d="M101.4,148.6l1,2.9c0,0,2.2,0.7,4.8-2.1"/>
		<path class="st21" d="M108.8,162c0,0,2.4-0.2,3.3-3.6"/>
		<path class="st21" d="M99.8,146.3c0,0,0.7-2.1,5-2.1"/>
		<path class="st4" d="M121.7,117.1c-3.1-0.4-6.3-0.7-9.4-0.7c0,0-9.4-5.4-18.5,0.4s-4.7,15.9-4.7,18.5s-2.9,2.5-1.1,5.8
			s7.9,1.5,7.9,1.5c0.1-2.5,1.3-4.8,3.3-6.4c3.3-2.5,5.9-3.1,6.9-2.4c0,0-0.7,5.4,0.4,7.6c0,0,3.6,1.8,4.7,1.8s-0.7,1.5,2.9,2.9
			c1.3,0.5,2.8,0.3,4-0.5c0.5-2.2,1.7-5.5,3.8-4.7c3.2,1.1,6.1,8.9,1.8,11.6c5.2,0.9,11.4-8.2,11.8-16.5S127.1,118,121.7,117.1z"/>
		<path class="st22" d="M106.4,130.1c0,0,2.7-1.4,5.9,1.6s9.6,7.1,18,4.9"/>
		<path class="st22" d="M106,127.7c0,0,1.8-2.9,4.9-2.9s10.2,4.3,15.9,4.3"/>
		<path class="st22" d="M103.9,133.2c0,0-3.5-4.3-6.7-0.8s-1.2,6.7-1.2,6.7"/>
		<path class="st22" d="M90.1,136.1c2-1.8,3.2-4.3,3.5-6.9c0.4-4.5,6.5-8.4,10.4-4.7"/>
		<path class="st22" d="M96.4,119.7c0,0,6.1-5.9,11.2,1.6"/>
		<path class="st9" d="M146.3,410.8c0,0,3.8,5.9,3.4,9.6l-0.4,3.8c0,0-13.8,3.8-16.8,3.8s-18.4-1.5-18.4-1.5l-0.7-2.7
			c-0.1-0.4,0.1-0.8,0.5-1l13.8-6.5l4.4-4.8L146.3,410.8z"/>
		<path class="st23" d="M134.5,425c3.8,0.3,10.9-2,15-3.5l-0.3,2.6c0,0-13.9,3.8-16.8,3.8s-18.4-1.5-18.4-1.5l-0.5-1.9
			C116,424.6,129.6,424.7,134.5,425z"/>
		<path class="st9" d="M127.7,416.4l-20.1,8.8c0,0-1.7,4.3,0,5.2s39.2,0,39.2,0s2.6-6.8-1.5-11.4S127.7,416.4,127.7,416.4z"/>
		<path class="st23" d="M146.8,430.4c0,0-37.5,0.9-39.2,0c-0.8-0.4-0.9-1.6-0.7-2.8h40.6C147.3,428.5,147.1,429.4,146.8,430.4z"/>
		<path class="st23" d="M118.1,264.2c0,0-5.3,23.3-7.3,37.9s-3.2,43.8-2.7,47.1s21.4,59.5,21.4,59.5l2.1,5l14.7-2.9
			c0,0-6.7-21.4-9.2-33.1s-8-31-8-34.4s13-67.3,13.9-71.5s5.1-10.6,5.1-10.6l-28.1-0.6L118.1,264.2z"/>
		<path class="st23" d="M118.1,264.2c0,0-3.1,21.3-1.8,36.1s4,46.3,4,51s7.6,32.7,8,41.5c0.7,12.7-0.3,19-0.3,19l-0.4,4.6
			c0,0,8.8,1.3,10.8,1.8c2.2,0.6,4.5,0.8,6.8,0.7c0,0,3.2-14.1,3.2-26.2s-2.7-36.8-4-46.9s2.9-48.8,5.2-56s7.6-22.5,4.1-30.4
			S118.1,264.2,118.1,264.2z"/>
		<path class="st4" d="M157.6,255.6l-0.3,9.5c0,0-5.7,1.1-13.4,2.5c-6.3,1.1-22.3-0.3-27.6-0.8c-1-0.1-1.8-1-1.7-2l0.5-8.6
			L157.6,255.6z"/>
		<path class="st9" d="M135.3,160.8c0,0-9,9.7-12.4,15.8s-4.7,15.3-6,22.6s2.2,24.4,1.2,32.3l-3.1,24.8c0,0-0.7,1.7,1.6,3.5
			s13,2.5,22.8,3c3.6,0.2,14.2-2.1,15.9-2.2c2.1-0.1,2.2-2.8,2.3-4.9c0.4-9.9,2.2-36.2,3.4-47.6
			C163.4,184.6,150.2,162.1,135.3,160.8z"/>
		<path class="st0" d="M159.8,221.3c0.4-5.2,0.8-9.9,1.1-13.3c0.1-1,0.2-2,0.2-3l-23.9,4l-20.5-7c0,4.3,0.2,8.5,0.7,12.7l20.2,5.6
			L159.8,221.3z"/>
		<path class="st0" d="M134.4,161.7c-1.4,1.5-4.1,4.6-6.6,7.8L143,185l5-2L134.4,161.7z"/>
		<path class="st4" d="M135.3,160.8c0,0-9,9.7-12.4,15.8c-1,1.8-1.8,3.8-2.4,5.8l18.1-20.9C137.6,161.1,136.5,160.9,135.3,160.8z"/>
		<path class="st0" d="M117.7,195.2l19.6,6.5l23.9-2.7c-0.4-5.9-1.7-11.8-3.9-17.3l-19.2,7.7l-17.2-7.8
			C119.4,186,118.3,190.6,117.7,195.2z"/>
		<path class="st0" d="M151.5,245.8c-10,1.7-20.2,0.8-29.7-2.4l-4.8-1.6l-1.5,12l5.5,1.5c10.4,2.9,21.2,3.7,31.9,2.5l4.4-0.5
			c0.2-0.5,0.4-1,0.4-1.6c0.1-2.7,0.3-6.6,0.6-11L151.5,245.8z"/>
		<path class="st0" d="M154.1,229.4c-10,1.7-20.2,0.8-29.7-2.4l-6.1-2.1c0.2,2.2,0.1,4.4-0.1,6.5l-0.7,5.8l6.1,1.7
			c10.4,2.9,21.2,3.7,31.9,2.5l3-0.4c0.3-4,0.5-8.3,0.9-12.5L154.1,229.4z"/>
		
			<rect x="69.7" y="182" transform="matrix(0.6266 -0.7793 0.7793 0.6266 -125.2231 127.4527)" class="st4" width="1.3" height="24.8"/>
		<path class="st2" d="M144.6,171.5c0,0,7.1,4.8,7.3,16.2c0.1,5-0.4,9.7-1.6,17.9s-8.3,34.9-13.9,38.1s-14.2-2.9-14.2-2.9
			l-41.7-27.7L70.4,205l-5-9.4l1.6-3l12.3,9.4l-6.6-6.1l1.3-1.6l2.4,1.7l7,2.6l1.5,10l2.2,1.5l39.9,14.6c0,0-0.5-21.5-0.1-25.6
			s0.9-14.4,5.3-21.9"/>
		<g>
			<defs>
				<path id="SVGID_9_" d="M144.6,171.5c0,0,7.1,4.8,7.3,16.2c0.1,5-0.4,9.7-1.6,17.9s-8.3,34.9-13.9,38.1s-14.2-2.9-14.2-2.9
					l-41.7-27.7L70.4,205l-5-9.4l1.6-3l12.3,9.4l-6.6-6.1l1.3-1.6l2.4,1.7l7,2.6l1.5,10l2.2,1.5l39.9,14.6c0,0-0.5-21.5-0.1-25.6
					s0.9-14.4,5.3-21.9"/>
			</defs>
			<clipPath id="SVGID_10_">
				<use xlink:href="#SVGID_9_"  style="overflow:visible;"/>
			</clipPath>
			<g class="st24">
				<path class="st18" d="M126.7,208.3c0,7.4,0.3,16.2,0.3,16.2l-39.9-14.5l-2.2-1.5l-1.5-10l-7-2.6l-2.4-1.7l-1.3,1.6l6.6,6.1
					L67,192.6l-1.5,2.9l5,9.4l10.1,8.2l2.5,1.7l55.2,17.8L126.7,208.3z"/>
			</g>
		</g>
		<path class="st13" d="M144.6,171.5c0,0,7.1,4.8,7.3,16.2c0.1,5-0.4,9.7-1.6,17.9s-8.3,34.9-13.9,38.1s-14.2-2.9-14.2-2.9
			l-41.7-27.7L70.4,205l-5-9.4l1.6-3l12.3,9.4l-6.6-6.1l1.3-1.6l2.4,1.7l7,2.6l1.5,10l2.2,1.5l39.9,14.6c0,0-0.5-21.5-0.1-25.6
			s0.9-14.4,5.3-21.9"/>
		<path class="st9" d="M127,224.6l15.2,11l3.9-7c0,0,2.7-2.1,3.1-3.8s-0.1-4.3,0.3-5.9s2.4-3.1,2.6-7.1s0-7.2,0-7.2
			s3.3-13.6,2.9-19.5s-6.1-16.3-10.6-16.6s-10.5,0.5-15.1,7.4s-3.7,27.3-4.4,28.6s0.3,7.5,0.3,7.5c-0.8,0.6-1.3,1.5-1.4,2.5
			c-0.1,1.6,1.7,5.6,1.7,5.6L127,224.6z"/>
		<path class="st0" d="M125.5,199.4c0,1.7-0.1,3.5-0.4,5.2c-0.6,1.1,0.1,6.3,0.3,7.3c8.6,2.7,17.6,3.3,26.5,2
			c0.2-0.7,0.3-1.4,0.3-2.1c0.2-3.9,0-7.2,0-7.2s0.3-1.2,0.7-3.1C143.7,202.2,134.5,201.4,125.5,199.4z"/>
		<path class="st0" d="M128.9,177.2c-1.4,2.9-2.2,7.2-2.7,11.6c9.1,3.5,18.9,4.7,28.5,3.5c0.4-2.3,0.6-4.7,0.5-7
			c-0.2-1.9-0.6-3.7-1.3-5.4C145.5,180,137.1,179.1,128.9,177.2z"/>
		<path class="st4" d="M125.7,220.4l1.3,4.1l15.2,11l3.9-7c0,0,2.7-2.1,3.1-3.8c0.1-0.3,0.1-0.6,0.1-0.9
			C141.4,223.8,133.4,222.6,125.7,220.4z"/>
		<path class="st13" d="M136.7,418.1c0,0,0.3-8.7,2-21.3s-2.3-30.6-3-33.6s0.3-9.7-0.3-12s-3.9-12.3-2-23.9s3.5-42.2,3.5-42.2
			s-4.8-3.9-6.2-9s-0.3-6.7-0.3-6.7"/>
		<line class="st13" x1="138.9" y1="269.8" x2="137.1" y2="280.1"/>
	</g>
</g>
</svg>
