<?xml version="1.0" encoding="utf-8"?>
<!-- Generator: Adobe Illustrator 24.2.1, SVG Export Plug-In . SVG Version: 6.00 Build 0)  -->
<svg version="1.1" id="Calque_1" xmlns="http://www.w3.org/2000/svg" xmlns:xlink="http://www.w3.org/1999/xlink" x="0px" y="0px"
	 viewBox="0 0 500 500" style="enable-background:new 0 0 500 500;" xml:space="preserve">
<style type="text/css">
	.st0{fill:#E0E0E0;}
	.st1{fill:#EBEBEB;}
	.st2{fill:#F5F5F5;}
	.st3{fill:#FFFFFF;}
	.st4{fill:#455A64;}
	.st5{fill:#FAFAFA;}
	.st6{fill:#263238;}
	.st7{fill:#90CAF9;}
	.st8{fill:#996964;}
	.st9{fill:#784D48;}
	.st10{opacity:0.3;}
	.st11{opacity:0.4;}
	.st12{opacity:0.5;}
	.st13{fill:none;}
</style>
<g>
	<g id="freepik--background-complete--inject-4">
		<path class="st0" d="M413,371.6c-0.1,0.1-1-0.4-2-1.2s-1.7-1.5-1.6-1.7s1,0.4,2,1.2S413.1,371.5,413,371.6z"/>
		<path class="st1" d="M440.1,331.1c0.2-3.8,0.3-7.7-0.9-11.3s-4-6.9-7.7-7.7c-4.2-0.9-8.6,1.8-10.9,5.4s-3.2,8-3.9,12.3
			c-4.8,29.4-6.6,59.2-5.3,89l17.3,2.4C436.3,390.3,438.7,363.1,440.1,331.1z"/>
		<path class="st0" d="M429.1,312.1c0,0.1,0,0.2-0.1,0.3c-0.1,0.2-0.2,0.5-0.3,0.8l-1.2,3c-0.2,0.6-0.6,1.4-0.8,2.2l-0.8,2.6
			c-0.3,0.9-0.6,1.9-1,3l-0.9,3.4c-1.4,5.6-2.6,11.4-3.4,17.1c-0.9,6.5-1.5,13.7-2,21.3c-0.9,15.2-1,28.9-1.4,38.9
			c-0.2,5-0.4,9-0.5,11.8c-0.1,1.4-0.2,2.4-0.2,3.2c0,0.3,0,0.6-0.1,0.8c0,0.1,0,0.2,0,0.3c0-0.1,0-0.2,0-0.3c0-0.2,0-0.5,0-0.8
			c0-0.8,0-1.9,0.1-3.2c0.1-2.8,0.2-6.8,0.4-11.8c0.3-10,0.3-23.7,1.2-38.9c0.5-7.6,1.1-14.8,2.1-21.4c0.8-5.8,2-11.5,3.5-17.2
			c0.3-1.2,0.6-2.4,0.9-3.4l1-3c0.3-0.9,0.6-1.8,0.9-2.6s0.6-1.5,0.9-2.1l1.3-3c0.1-0.3,0.3-0.6,0.4-0.8S429.1,312.1,429.1,312.1z"
			/>
		<path class="st0" d="M430.7,312.1c0.9,1.1,1.6,2.3,2.1,3.6c1.3,3.6,1.9,7.4,1.6,11.2c-0.5,9.6-1.3,22.8-2.5,37.3
			s-2.4,27.7-3.4,37.2c-0.5,4.8-1,8.6-1.3,11.3c-0.2,1.3-0.3,2.3-0.4,3.1c0,0.3-0.1,0.6-0.1,0.8c0,0.1,0,0.2-0.1,0.3
			c0-0.1,0-0.2,0-0.3c0-0.2,0-0.5,0-0.8c0.1-0.8,0.2-1.8,0.3-3.1c0.3-2.7,0.6-6.6,1.1-11.3c0.9-9.5,2.1-22.7,3.3-37.2
			s2.1-27.8,2.6-37.3c0.3-3.8-0.2-7.5-1.4-11.1C432,314.5,431.4,313.3,430.7,312.1z"/>
		<path class="st0" d="M442.7,356.9c-1.1-0.1-2.2-0.4-3.3-0.9c-1.8-0.6-3.1-1.3-3.1-1.4c1.1,0.1,2.2,0.4,3.3,0.9
			C441.4,356.1,442.8,356.8,442.7,356.9z"/>
		<path class="st0" d="M444.8,339.3c-0.9,0.7-2,1.3-3.1,1.7c-1.8,0.8-3.3,1.3-3.4,1.2c0.9-0.7,2-1.3,3.1-1.7
			C443.2,339.6,444.7,339.1,444.8,339.3z"/>
		<path class="st0" d="M443.7,324.9c-0.8,0.2-1.7,0.3-2.6,0.1c-0.9,0-1.7-0.1-2.5-0.5C440.3,324.2,442.1,324.3,443.7,324.9z"/>
		<path class="st0" d="M425.9,315.6c-0.1,0.1-0.9-0.9-1.7-2.1c-0.6-0.7-1-1.6-1.2-2.4c0.1-0.1,0.9,0.9,1.7,2.1
			C425.2,313.9,425.6,314.7,425.9,315.6z"/>
		<path class="st0" d="M419.9,324.3c-0.8,0.3-1.6,0.4-2.5,0.3c-1.4,0-2.5-0.2-2.4-0.4c0.8-0.3,1.6-0.4,2.5-0.3
			C418.9,324,420,324.2,419.9,324.3z"/>
		<path class="st0" d="M415.7,341.8c-0.9,0-1.8-0.3-2.6-0.7c-1.4-0.5-2.4-1.1-2.4-1.3c0.9,0,1.8,0.3,2.6,0.7
			C414.7,341,415.8,341.6,415.7,341.8z"/>
		<path class="st0" d="M415.3,356.4c0,0.2-1,0.5-2.2,0.8s-2.3,0.3-2.3,0.2s1-0.5,2.2-0.8S415.2,356.3,415.3,356.4z"/>
		<path class="st0" d="M413.3,380.4c0,0.2-1,0.5-2.3,0.7s-2.4,0.3-2.4,0.1s1-0.5,2.3-0.7S413.2,380.2,413.3,380.4z"/>
		<path class="st0" d="M411.9,393.6c0.1,0.1-0.8,0.8-2,1.4s-2.2,1-2.2,0.8s0.8-0.8,2-1.4S411.9,393.5,411.9,393.6z"/>
		<path class="st0" d="M422.7,408.6c-0.1,0.1-0.9-1-1.7-2.4c-0.6-0.8-1-1.7-1.2-2.6c0.1-0.1,0.9,1,1.7,2.3
			C422.1,406.8,422.5,407.7,422.7,408.6z"/>
		<path class="st0" d="M425.9,383.7c0.1,0.1-0.7,1.1-1.9,2.3s-2.2,2-2.3,1.8s0.7-1.1,1.9-2.3S425.7,383.6,425.9,383.7z"/>
		<path class="st0" d="M425.2,370.6c-0.1,0.1-0.9-0.5-1.8-1.4s-1.4-1.8-1.3-1.9s0.9,0.5,1.8,1.4S425.3,370.5,425.2,370.6z"/>
		<path class="st0" d="M427.3,353.9c0.1,0.1-0.6,1.1-1.6,2.2s-1.9,1.9-2,1.8s0.6-1.1,1.6-2.2S427.2,353.7,427.3,353.9z"/>
		<path class="st0" d="M428.5,341.7c-0.1,0.1-1.1-0.7-2.2-1.7s-1.9-2-1.8-2.2s1.1,0.7,2.2,1.7S428.6,341.6,428.5,341.7z"/>
		<path class="st0" d="M430.9,325.3c-0.2,0.9-0.6,1.7-1.1,2.5c-0.8,1.3-1.5,2.2-1.6,2.1c0.2-0.9,0.6-1.7,1.1-2.5
			C430,326.2,430.7,325.2,430.9,325.3z"/>
		<path class="st0" d="M435.4,310.1c-0.1,0.9-0.5,1.7-1,2.5c-0.7,1.3-1.4,2.3-1.5,2.2c0.1-0.9,0.5-1.7,1-2.5
			C434.5,311,435.2,310,435.4,310.1z"/>
		<path class="st0" d="M440.4,317c0.1,0.2-0.6,0.6-1.5,1.1s-1.7,0.7-1.8,0.5s0.6-0.6,1.5-1.1S440.3,316.8,440.4,317z"/>
		<path class="st0" d="M440.5,371.6c-2.4-0.2-4.6-1.1-6.3-2.7c0.1-0.1,1.5,0.6,3.2,1.3S440.6,371.5,440.5,371.6z"/>
		<path class="st0" d="M438.5,383.2c0,0.2-1,0.5-2.3,0.8c-0.8,0.3-1.6,0.3-2.5,0.2c0-0.2,1-0.5,2.3-0.8S438.4,383,438.5,383.2z"/>
		<path class="st0" d="M435.9,403c-0.1,0.1-1.4-0.8-2.6-2.3s-1.8-3-1.6-3.1s1,1.2,2.1,2.7C434.6,401.1,435.3,402,435.9,403z"/>
		<path class="st0" d="M408.1,412.1c-0.1-0.1,0.6-0.9,1.6-1.8s1.9-1.4,2-1.3s-0.6,0.9-1.6,1.8S408.2,412.3,408.1,412.1z"/>
		<path class="st1" d="M400.1,368.8c-1.1-3.5-3.2-7.6-6.9-7.7c-2.2,0.1-4.2,1.5-5.2,3.5c-1,2-1.5,4.2-1.4,6.4
			c0.5,15.7,3.1,31.2,7.9,46.1H408C407.8,400.7,405.2,384.4,400.1,368.8z"/>
		<path class="st1" d="M375.6,346.6c-1.9-7.6-7.5-11.6-14.1-12c-6,1-8.3,6.9-9,13s1.2,12,3,17.8c5.9,18.6,11.9,37.1,17.8,55.7
			l16.8-1.8C384.9,394.4,381.8,371.3,375.6,346.6z"/>
		<path class="st0" d="M393.1,361.1c-0.4,0.6-0.8,1.3-1.1,1.9c-0.7,1.9-0.9,4-0.6,6c0.3,2.6,0.6,5.7,1,9.1s1,7.1,1.8,11
			c1.5,7.8,3.3,14.7,4.4,19.8c0.5,2.5,1,4.6,1.2,6c0.1,0.7,0.2,1.2,0.3,1.6c0,0.2,0.1,0.4,0.1,0.6c-0.1-0.2-0.1-0.4-0.2-0.6
			c-0.1-0.4-0.2-1-0.4-1.6c-0.4-1.5-0.9-3.5-1.4-6c-1.2-5-3-12-4.5-19.8c-0.8-3.9-1.4-7.6-1.8-11c-0.2-1.7-0.4-3.3-0.5-4.9
			s-0.3-2.9-0.4-4.2c-0.2-2.1,0-4.2,0.9-6.1C392.1,362.2,392.6,361.6,393.1,361.1z"/>
		<path class="st0" d="M361.8,334.1c-0.7,0.9-1.4,1.8-2,2.7c-1.6,2.7-2.4,5.7-2.6,8.8c-0.3,3.9,0.6,8.6,2.1,13.5s3.1,10.5,4.8,16.3
			c3.4,11.5,6.4,22,8.6,29.6l2.5,9c0.3,1,0.5,1.8,0.7,2.5c0.1,0.3,0.2,0.6,0.2,0.9c-0.1-0.3-0.2-0.5-0.3-0.8
			c-0.2-0.6-0.5-1.4-0.8-2.4c-0.7-2.2-1.6-5.2-2.7-8.9c-2.3-7.6-5.4-18-8.8-29.5c-1.7-5.8-3.3-11.3-4.8-16.3s-2.3-9.7-2-13.7
			c0.2-3.2,1.1-6.2,2.8-8.9C360.1,335.8,360.9,334.9,361.8,334.1z"/>
		<path class="st0" d="M386.5,417.4c-0.2-0.3-0.3-0.5-0.4-0.8c-0.2-0.5-0.6-1.3-1-2.4c-0.8-2.1-1.8-5.1-2.9-8.9s-2.1-8.4-3.1-13.6
			s-2-10.8-3.1-16.8s-2.5-11.5-4-16.5c-1.3-4.5-2.9-8.8-4.9-13c-1.3-2.8-2.8-5.6-4.5-8.2c-0.6-0.9-1.1-1.6-1.4-2.1
			c-0.2-0.2-0.3-0.5-0.5-0.8c0.2,0.2,0.4,0.4,0.6,0.7c0.4,0.5,0.9,1.1,1.5,2c1.8,2.6,3.4,5.3,4.7,8.1c2,4.2,3.7,8.5,5,13
			c1.6,5.5,3,11,4,16.6c1.1,5.9,2.2,11.6,3.1,16.8s2,9.7,3,13.6s2,6.9,2.7,9c0.4,1.1,0.7,1.9,0.9,2.4
			C386.3,416.9,386.4,417.1,386.5,417.4z"/>
		<path class="st0" d="M355.9,362.6c0,0.2-0.9,0.5-2,0.8s-2.1,0.4-2.2,0.2s0.9-0.5,2-0.8S355.8,362.5,355.9,362.6z"/>
		<path class="st0" d="M354.1,351.1c0,0.2-1.3,0.3-2.8,0.3c-0.9,0.1-1.9,0.1-2.9-0.1c0.9-0.4,1.9-0.6,2.8-0.5
			C352.2,350.7,353.2,350.8,354.1,351.1z"/>
		<path class="st0" d="M356,340.6c-0.1,0.1-1-0.5-2-1.3s-1.8-1.7-1.6-1.8s1,0.5,2,1.3S356.1,340.5,356,340.6z"/>
		<path class="st0" d="M361.1,330.9c0.2,0,0.1,0.9,0.1,1.9s0,1.8-0.2,1.8s-0.5-0.8-0.4-1.9S360.9,330.9,361.1,330.9z"/>
		<path class="st0" d="M371.6,335.5c0.1,0.1-0.3,0.9-0.9,1.9s-1.3,1.6-1.4,1.5s0.3-0.9,0.9-1.9S371.4,335.4,371.6,335.5z"/>
		<path class="st0" d="M378.4,347.3c0.1,0.2-0.8,0.7-2,1.1s-2.1,0.7-2.2,0.6s0.8-0.7,2-1.1S378.3,347.2,378.4,347.3z"/>
		<path class="st0" d="M382.5,359.5c-0.8,0.6-1.7,1-2.7,1.2c-1.6,0.4-2.9,0.3-2.9,0.1c0.9-0.3,1.8-0.6,2.8-0.7
			C380.6,359.8,381.6,359.6,382.5,359.5z"/>
		<path class="st0" d="M363.6,356c-0.2-0.1,0-0.9,0.3-1.9s0.7-1.7,0.9-1.7s0,0.9-0.3,1.9S363.7,356.1,363.6,356z"/>
		<path class="st0" d="M366.2,371.3c-0.2-0.1,0.2-1.2,0.8-2.5s1.2-2.4,1.3-2.3c-0.1,0.9-0.3,1.7-0.8,2.5
			C367,370.4,366.4,371.4,366.2,371.3z"/>
		<path class="st0" d="M359.7,375.5c-0.1,0.2-1.1-0.1-2.4-0.5s-2.3-0.8-2.3-0.9c0.8-0.1,1.7,0,2.5,0.4
			C358.8,374.8,359.7,375.3,359.7,375.5z"/>
		<path class="st0" d="M363.4,388c0.1,0.1-0.6,0.8-1.6,1.5s-1.9,1.2-2,1s0.6-0.8,1.6-1.5S363.3,387.8,363.4,388z"/>
		<path class="st0" d="M366.5,400.4c0,0.2-0.9,0.5-2,0.8s-2.1,0.4-2.1,0.2s0.9-0.5,2-0.8S366.4,400.2,366.5,400.4z"/>
		<path class="st0" d="M382.9,369.9c0.1,0.1-0.7,0.8-1.8,1.2s-2.1,0.5-2.1,0.3s0.8-0.5,1.9-0.9S382.8,369.7,382.9,369.9z"/>
		<path class="st0" d="M385.2,389.2c-0.1,0.2-1-0.1-2-0.6s-1.8-1-1.8-1.2s1,0.1,2,0.6S385.3,389,385.2,389.2z"/>
		<path class="st0" d="M389.3,403c-0.9,0-1.8-0.3-2.7-0.7c-0.9-0.2-1.7-0.7-2.5-1.3c0.9,0,1.9,0.3,2.7,0.7
			C388.3,402.3,389.4,402.8,389.3,403z"/>
		<path class="st0" d="M367.1,413.8c-0.1-0.2,1-0.9,2.3-1.9s2.3-1.9,2.4-1.8s-0.7,1.2-2,2.3S367.2,414,367.1,413.8z"/>
		<path class="st0" d="M378,406.8c-0.2,0-0.4-0.9-0.8-2s-0.9-1.9-0.7-2s0.8,0.6,1.3,1.8S378.2,406.8,378,406.8z"/>
		<path class="st0" d="M375.1,390.2c-0.1,0.1-0.8-0.2-1.6-0.8s-1.3-1.1-1.2-1.3s0.8,0.2,1.6,0.8S375.3,390,375.1,390.2z"/>
		<path class="st0" d="M400.6,364.1c0.1,0.1-0.6,0.8-1.5,1.5s-1.8,1.2-1.9,1s0.6-0.8,1.5-1.5S400.5,364,400.6,364.1z"/>
		<path class="st0" d="M404.5,374.6c-0.7,0.3-1.6,0.4-2.4,0.2c-1.3-0.1-2.3-0.6-2.3-0.8c0.8-0.1,1.6,0,2.4,0.1
			C403.4,374.4,404.5,374.5,404.5,374.6z"/>
		<path class="st0" d="M388,377c0,0.2-1,0.5-2.3,0.6s-2.3-0.1-2.3-0.3s1-0.2,2.3-0.3S387.9,376.8,388,377z"/>
		<path class="st0" d="M389.4,367.1c0,0.2-1,0.2-2.1-0.3s-1.7-1.3-1.6-1.4s0.9,0.4,1.9,0.8S389.4,366.9,389.4,367.1z"/>
		<path class="st0" d="M405.9,385.9c-0.1,0.1-1.1-0.4-2.3-1.1s-2.1-1.5-2-1.6s1.1,0.3,2.3,1.1S406,385.8,405.9,385.9z"/>
		<rect x="358.1" y="415.4" class="st0" width="88" height="15.6"/>
		<polygon class="st0" points="364.7,427.9 375.4,474.5 427.9,474.5 439.6,427.9 		"/>
		<path class="st1" d="M446.1,431c0,0.2-19.9,0.3-44.3,0.3s-44.4-0.1-44.4-0.3s19.9-0.3,44.4-0.3S446.1,430.8,446.1,431z"/>
		<path class="st0" d="M397.1,377.3c-0.1,0.1-0.7-0.6-1.3-1.6s-1-1.8-0.8-1.9s0.8,0.6,1.4,1.6S397.3,377.2,397.1,377.3z"/>
		<path class="st0" d="M397.2,389.9c-0.2-0.1,0-1.1,0.5-2.4s0.9-2.2,1-2.2s0,1.1-0.5,2.4S397.3,389.9,397.2,389.9z"/>
		<path class="st0" d="M401.5,403.1c-0.1,0.1-0.8-1-1.5-2.4c-0.5-0.8-0.8-1.7-0.9-2.6c0.2-0.1,0.8,1,1.5,2.4S401.6,403,401.5,403.1z
			"/>
		<path class="st0" d="M392.2,413.7c-0.1-0.1,0.4-0.9,1.2-1.8s1.5-1.5,1.6-1.4s-0.4,0.9-1.2,1.8S392.3,413.8,392.2,413.7z"/>
		<path class="st0" d="M390.2,394.4c0,0.2-0.9,0.2-1.9,0s-1.8-0.5-1.8-0.6s0.9-0.2,1.9,0S390.2,394.2,390.2,394.4z"/>
		<polygon class="st2" points="321.2,426.3 321.2,476.1 248.3,476.1 167.9,476.1 167.9,426.3 		"/>
		<polygon class="st0" points="327.6,412.3 327.6,426.3 162.5,426.3 162.5,412.3 248.3,412.3 		"/>
		<polygon class="st0" points="245.1,476.1 167.9,476.1 167.9,426.3 162.5,426.3 162.5,412.3 248.3,412.3 248.3,425 		"/>
		<rect x="268.6" y="434.3" class="st0" width="31.1" height="7.5"/>
		<rect x="263.8" y="451.2" class="st3" width="39.9" height="15.8"/>
		<rect x="55.8" y="38.3" class="st0" width="144.5" height="150.6"/>
		<rect x="46" y="38.3" class="st4" width="144.5" height="150.6"/>
		<path class="st2" d="M190.6,189H46V38.2h144.6V189z"/>
		<rect x="65.5" y="58.5" class="st5" width="105.7" height="110.2"/>
		<path class="st0" d="M65.5,169.4c-0.8,1.1-1.6,2.1-2.6,3c-1.7,1.8-4.1,4.2-6.7,6.8s-5.1,5-6.9,6.6c-0.9,1-1.9,1.8-3.1,2.5
			c0.7-1.1,1.6-2.1,2.6-3c1.7-1.8,4.1-4.2,6.7-6.8s5.1-5,6.9-6.6S65.4,169.3,65.5,169.4z"/>
		<path class="st0" d="M171.1,169.1c1.1,0.7,2.1,1.6,3,2.6c1.8,1.7,4.2,4.1,6.8,6.7s5,5.1,6.6,6.9c1,0.9,1.8,1.9,2.5,3.1
			c-1.1-0.7-2.1-1.6-3-2.6c-1.8-1.7-4.2-4.1-6.8-6.7s-5-5.1-6.6-6.9C172.7,171.3,171.9,170.3,171.1,169.1z"/>
		<path class="st0" d="M170.9,58.8c0.8-1.1,1.6-2.1,2.6-3c1.7-1.8,4.1-4.2,6.7-6.8s5.1-5,6.9-6.6c0.9-1,1.9-1.8,3.1-2.5
			c-0.7,1.1-1.6,2.1-2.6,3c-1.7,1.8-4.1,4.2-6.7,6.8s-5.1,5-6.9,6.6S170.9,58.9,170.9,58.8z"/>
		<path class="st0" d="M65.2,59.1c-1.1-0.8-2.1-1.6-3-2.6c-1.8-1.7-4.2-4.1-6.8-6.7s-5-5.1-6.6-6.9c-1-0.9-1.8-1.9-2.5-3
			c1.1,0.7,2.1,1.6,3,2.6c1.8,1.6,4.2,4,6.8,6.7s5,5.1,6.6,6.9C63.6,57,64.5,58,65.2,59.1z"/>
		<path class="st0" d="M170.9,168.7c0,0,0-0.2,0-0.5s0-0.9,0-1.5c0-1.4,0-3.4-0.1-5.9c0-5.2-0.1-12.8-0.1-22.4
			c-0.1-19.3-0.1-46.8-0.2-79.7l0.4,0.4L65.5,59l0,0l0.5-0.5c0,40.4,0,78.3-0.1,110.2l-0.4-0.4l76.3,0.2l21.4,0.1h5.7h1.5
			L170.9,168.7l-0.5-0.1H169l-5.6,0.1l-21.3,0.1L65.5,169h-0.4v-0.4c0-31.9,0-69.7-0.1-110.2v-0.5h0.5L170.9,58h0.4v0.4
			c-0.1,33-0.2,60.6-0.2,79.9c0,9.6-0.1,17.2-0.1,22.4c0,2.5,0,4.5,0,5.9c0,0.6,0,1.1,0,1.5C170.9,168.3,170.9,168.5,170.9,168.7z"
			/>
		<path class="st2" d="M98.8,143.5c-8-8-8.5-22.2-1-30.8c2.9-3.4,6.8-5.8,9.6-9.4c5.9-7.7,5.8-19.8,14-24.9c6-3.8,14.6-1.6,18.9,3.9
			s4.7,13.6,1.9,20.1c-2.1,4.8-5.7,8.8-7.2,13.8s-0.6,10.7-2.2,15.8c-1.9,6.1-8.4,10-14.5,12.3C111.9,146.5,105,146.2,98.8,143.5"/>
		<path class="st0" d="M128.6,92.7c-0.3,1-0.6,2-1,2.9c-0.7,1.9-1.8,4.5-3.3,7.7c-3.8,8.4-8.2,16.6-13.1,24.5
			c-4.9,7.9-10.3,15.4-16.1,22.6c-2.3,2.8-4.1,4.9-5.5,6.4c-0.7,0.8-1.4,1.5-2.2,2.2c0.6-0.9,1.2-1.7,1.9-2.4
			c1.3-1.5,3.1-3.8,5.2-6.6c5.7-7.3,10.9-14.8,15.8-22.7c4.8-7.8,9.3-15.9,13.3-24.3c1.5-3.2,2.7-5.8,3.6-7.6
			C127.6,94.5,128,93.6,128.6,92.7z"/>
		<path class="st0" d="M106.7,111.8c0.4,1.8,0.7,3.7,0.8,5.6c0.4,3.5,0.9,8.3,1.5,13.8l-0.7-0.4l2.3-1.3c5.3-3.1,10.1-5.8,13.6-7.8
			c1.8-1.1,3.8-2.1,5.8-3c-1.7,1.3-3.5,2.5-5.4,3.6c-3.4,2.1-8.2,4.9-13.4,8l-2.3,1.3l-0.6,0.4l-0.1-0.7c-0.5-5.5-0.9-10.3-1.2-13.8
			C106.7,115.6,106.6,113.7,106.7,111.8z"/>
		<path class="st0" d="M134.4,103.7c-1.1,0.8-2.3,1.5-3.6,2c-2.3,1.1-5.4,2.6-8.9,4.2l-1.1,0.5l-0.6,0.3l-0.1-0.6
			c-0.6-3.5-1-6.7-1.3-8.9c-0.2-1.2-0.3-2.4-0.3-3.7c0.5,1.1,0.8,2.4,0.9,3.6c0.4,2.2,1,5.4,1.6,8.9l-0.7-0.4l1.1-0.5
			c3.5-1.6,6.7-3,9-3.9C131.8,104.4,133.1,104,134.4,103.7z"/>
	</g>
	<g id="freepik--Character--inject-4">
		<path class="st6" d="M183.4,219.9c-0.4,1.4-1.3,2.7-2.5,3.5c-1.4,1-3.1,1.3-4.8,0.9c-2.1-0.7-3.7-2.5-4-4.8
			c-0.2-1.3,0.1-2.5,0.8-3.6c0.8-1.2,1.7-2.2,2.9-3.1c2.3-1.8,5.5-3.3,7.3-6.4c1.9-3.2,2.3-7.1,1.2-10.6c-0.6-1.9-1.5-3.6-2.7-5.1
			c-1.3-1.5-2.7-2.9-4.3-4c-1.6-1.1-3-2.3-4.3-3.7c-1.2-1.3-2-3-2.1-4.8c0-1.7,0.5-3.4,1.4-4.9c0.9-1.5,2-2.8,3.2-3.9
			c2.4-2.3,5-4.4,6.6-7.1c1.5-2.5,2.2-5.3,2.1-8.2c-0.2-2.3-0.8-4.6-1.9-6.7c-0.7-1.6-1.4-3.2-1.9-4.9c-0.4-1.4-0.5-2.9-0.3-4.4
			c0,0,0,0.1-0.1,0.3c-0.1,0.3-0.2,0.6-0.2,0.9c-0.1,1.1-0.1,2.2,0.2,3.3c0.4,1.7,1,3.4,1.7,5c1,2.1,1.5,4.3,1.7,6.6
			c0.1,2.7-0.6,5.4-2.1,7.8c-1.6,2.5-4.1,4.5-6.6,6.9c-1.3,1.2-2.4,2.6-3.4,4.1c-1,1.6-1.6,3.5-1.6,5.4c0.1,2,0.9,3.9,2.3,5.4
			c1.4,1.4,2.9,2.7,4.5,3.8c1.5,1.1,3,2.4,4.2,3.8c1.1,1.4,2,3.1,2.5,4.8c1,3.3,0.6,6.9-1.1,9.9c-1.6,2.9-4.6,4.4-7,6.3
			c-1.2,0.9-2.2,2-3,3.3c-0.7,1.2-1,2.7-0.8,4.1c0.4,2.5,2.2,4.5,4.6,5.2c3,0.7,6-1,7.1-3.8C183.4,220.7,183.4,220.3,183.4,219.9z"
			/>
		<path class="st6" d="M80.8,126.8c-3.2-0.2-6.1-2.1-9.3-2.4c-4.5-0.5-8.8,2.3-12.2,5.3c-3.4,2.9-6.2,6.5-8.1,10.6
			c-2.9,6.9-2.1,14.7-0.1,21.9c1.8,6.4,4.4,13.6,1.2,19.5c-1,1.9-2.5,3.4-3.7,5.1c-2.7,4.1-3.6,9.2-2.3,14c1.3,4.6,4.4,8.4,5.8,12.9
			c1.4,4.5,1.2,9.4-0.8,13.7c-1.1,2.4-2.7,4.6-3.7,7c-1.6,3.9-1.7,8.2-0.2,12.1c1.2,3.2,3.5,6.1,4.1,9.5c1,5.4-2.4,10.8-1.7,16.3
			c13.2,3.3,27.5,6.5,40,1.3c1.4-0.2,2.4-1.5,2.2-2.9c0-0.2-0.1-0.4-0.2-0.6c-1.7-7.8-4.8-15.3-9.3-22c-3-4.4-6.7-9.1-6-14.4
			c0.9-7,9.4-12.3,7.8-19.2c-1-4.2-5.5-6.6-7.6-10.4c-2-3.5-1.7-7.9-0.7-11.8s2.7-7.6,3.4-11.6c1-5.5,0.2-11.4,2.6-16.5"/>
		<path class="st7" d="M86.4,122.5c1,1,1.2,2.6,1.3,4.3c0,1.8-0.2,3.6-0.6,5.4c-0.3,1.8-0.8,3.5-1.5,5.2c-0.7,1.5-1.4,2.9-2.8,3.5
			s-3-0.1-4.4-2c-0.8-1.1-1.3-2.4-1.5-3.8c-0.6-3.3,0.1-6.7,1.9-9.5c0.7-1.2,1.7-2.1,2.8-2.9C83.6,121.4,85.4,121.5,86.4,122.5z"/>
		<path class="st6" d="M70.8,175.1c-1.8-5.2-0.2-11.1,2.3-16s5.8-9.5,7.5-14.8c1.9-5.7,1.8-12,4-17.5c2.4-5.8,7.2-10.3,13.2-12.3
			c3.6-1.2,7.5-1.5,10.6-3.6s4.8-6,7.2-9c3.9-5,7.7-9.2,13.5-11.6c6.6-2.8,16.3-3.8,23-1.1c4.1,1.9,7.5,5.1,9.4,9.2
			c1.9,4.1,3.1,8.5,3.6,12.9c6.8,1.3,10.7,8.3,13.8,14.5c1.7,3.5,3.4,7.1,3.6,11c0.1,4.3-3.6,19.2-5.7,23
			c-10.9,19.6-27,23.8-46.7,34.6c-7.6,4.2-12.3,13.8-20.9,13.5c-10.1-0.4-19.9-0.8-25.8-9s-12.4-16-13.3-26"/>
		<path class="st8" d="M174.7,144c-0.6-14.1-9.4-31.5-23.5-30.4l-44,10c-4.3,0.3-7.6,3.9-7.6,8.2l2.2,105.5l-0.3,0.1
			c0,0,9.2,30,38.3,21.7c5.8-1.6,8.6-7.9,9.9-14.3h0.3c0-0.8,0.1-1.5,0.1-2.2c0.7-4.8,0.9-9.6,0.6-14.5l0,0c0.3-8.5,0.4-12,0.4-11.9
			s18-2.6,22.3-25.9C175.4,178.8,175.3,159.7,174.7,144z"/>
		<path class="st6" d="M136.8,162.6c0,1.7-1.3,3-3,3c-1.6,0.1-2.9-1.2-3-2.8c0,0,0,0,0,0c0-1.7,1.3-3,3-3
			C135.4,159.7,136.8,160.9,136.8,162.6C136.8,162.5,136.8,162.5,136.8,162.6z"/>
		<path class="st6" d="M167.2,161.6c0,1.7-1.3,3-3,3c-1.6,0.1-2.9-1.2-3-2.7c0,0,0,0,0,0c0-1.7,1.3-3,3-3
			C165.8,158.8,167.2,160,167.2,161.6C167.2,161.6,167.2,161.6,167.2,161.6z"/>
		<path class="st6" d="M171.5,154.3c-0.4,0.5-3-1.5-6.5-1.4s-6,2.3-6.4,1.8c-0.2-0.2,0.2-1.1,1.2-2.1c2.9-2.6,7.2-2.8,10.3-0.4
			C171.3,153.2,171.7,154.1,171.5,154.3z"/>
		<path class="st6" d="M138.9,154.8c-0.5,0.5-3-1.8-6.7-2s-6.6,1.6-7,1.1c-0.2-0.2,0.3-1.1,1.6-1.9c1.7-1.1,3.6-1.6,5.6-1.5
			c2,0.1,3.8,0.9,5.3,2.2C138.8,153.7,139.1,154.6,138.9,154.8z"/>
		<path class="st6" d="M149.7,178c0-0.2,2-0.5,5.3-0.8c0.8-0.1,1.6-0.2,1.8-0.8c0.1-0.9-0.1-1.7-0.5-2.5c-0.7-2-1.5-4.1-2.3-6.3
			c-3.2-9-5.4-16.4-5.1-16.6s3.2,7.1,6.4,16.1c0.8,2.2,1.5,4.4,2.2,6.4c0.5,1,0.6,2.2,0.4,3.3c-0.3,0.6-0.8,1-1.4,1.2
			c-0.5,0.1-0.9,0.2-1.4,0.2C151.7,178.2,149.7,178.1,149.7,178z"/>
		<path class="st9" d="M151,216.3c-11-0.1-21.8-3.2-31.2-9.1c0,0,7.5,16.8,31,15.1L151,216.3z"/>
		<path class="st9" d="M148.1,185.7c-1.2-1.6-3.2-2.5-5.2-2.3c-1.4,0.1-2.8,0.8-3.7,1.9c-0.9,1.1-1.1,2.6-0.4,3.8
			c1,1.2,2.7,1.7,4.2,1.2c1.5-0.5,3-1.3,4.2-2.4c0.4-0.3,0.7-0.6,0.9-0.9c0.2-0.4,0.2-0.8,0-1.2"/>
		<path class="st6" d="M140.1,180c0.5,0,0.4,3.5,3.4,6.1s6.7,2.3,6.7,2.8c0,0.2-0.9,0.7-2.4,0.7c-2.1,0-4-0.8-5.6-2.1
			c-1.5-1.3-2.4-3.1-2.6-5.1C139.4,180.8,139.9,180,140.1,180z"/>
		<path class="st6" d="M139.7,143.8c-0.3,0.9-3.6,0.4-7.4,0.7s-6.9,1.3-7.4,0.5c-0.2-0.4,0.3-1.2,1.6-2c3.4-2,7.5-2.4,11.2-1
			C139.2,142.7,139.9,143.4,139.7,143.8z"/>
		<path class="st6" d="M169.3,144.5c-0.7,0.7-3.2-0.1-6.3-0.2s-5.7,0.4-6.2-0.4c-0.3-0.4,0.2-1.1,1.3-1.8c1.6-0.8,3.3-1.2,5.1-1.1
			c1.8,0.1,3.5,0.6,4.9,1.6C169.3,143.4,169.6,144.1,169.3,144.5z"/>
		<path class="st6" d="M97.5,126.1c2.5-3.1,6.5-4.4,10.3-5.4c16.5-4.5,33.4-7.1,50.5-7.6c1.8,3.7-0.7,8.2-4.1,10.4
			s-7.6,2.8-11.5,3.8c-3.9,1-8,2.8-10,6.4c-2.1,3.8-1.1,8.6-3,12.5c-3.2,6.7-13.2,8-16.3,14.7c-2.4,5.1-0.8,3.9-0.6,9.5
			c0.2,6.4-3.7,7.3-8.7,11.2c-4,3.1-11.6,6.6-16.6,6.2c0.9-20.1,6.1-29.8,6.9-49.8C94.6,133.8,94.8,129.3,97.5,126.1z"/>
		<path class="st4" d="M125.6,94.1c0.1-0.1,0.3-0.2,0.4-0.3c0.4-0.3,0.8-0.5,1.3-0.8c1.6-0.9,3.3-1.5,5.1-1.9
			c2.6-0.6,5.4-0.7,8.1-0.4c6.7,0.8,12.6,4.9,15.8,10.9c1.3,2.4,2.1,5,2.5,7.7c0.3,1.8,0.3,3.6,0,5.4c-0.1,0.5-0.2,1-0.3,1.4
			c0,0.2-0.1,0.3-0.1,0.5c0.3-2.4,0.3-4.9,0-7.3c-0.4-2.6-1.3-5.2-2.6-7.5c-3.1-5.8-8.9-9.8-15.4-10.7c-2.6-0.4-5.3-0.3-7.9,0.3
			C130,92.1,127.7,92.9,125.6,94.1z"/>
		<path class="st4" d="M103.1,113.1c0.2,0,0.5,0,0.7,0c0.6,0,1.3-0.1,1.9-0.2c1-0.2,1.9-0.5,2.8-1c1.2-0.6,2.3-1.4,3.4-2.2
			c1.2-0.9,2.5-2,3.9-3c1.5-1.2,3.1-2.2,4.8-3.1c4-1.9,8.3-2.7,12.7-2.5c4.4,0.2,8.6,1.5,12.4,3.8c3,1.9,5.6,4.4,7.6,7.3
			c1.4,2,2.5,4.1,3.2,6.4c0.2,0.6,0.4,1.2,0.5,1.9c0.1,0.2,0.1,0.4,0.1,0.7c-0.1,0-0.3-0.9-0.8-2.5c-0.8-2.2-1.9-4.3-3.3-6.3
			c-2-2.9-4.6-5.3-7.6-7.2c-3.7-2.3-7.8-3.5-12.1-3.8c-4.3-0.2-8.6,0.6-12.5,2.4c-1.7,0.8-3.3,1.8-4.7,3c-1.4,1.1-2.7,2.1-3.9,3
			c-1.1,0.8-2.3,1.5-3.5,2.1c-0.9,0.5-2,0.8-3,1c-0.7,0.1-1.3,0.1-2,0.1C103.4,113.2,103.2,113.2,103.1,113.1z"/>
		<path class="st4" d="M83.3,138.1c0.3,1.9,0.7,3.9,1.2,5.7c2.8,9.2,10.5,16.1,20,17.9c1.9,0.3,3.9,0.5,5.8,0.6
			c-0.1,0-0.3,0.1-0.4,0.1c-0.4,0-0.8,0.1-1.2,0.1c-1.4,0-2.9-0.1-4.3-0.3c-9.7-1.6-17.6-8.7-20.3-18.1c-0.4-1.4-0.7-2.8-0.8-4.3
			c-0.1-0.5-0.1-0.9-0.1-1.2S83.3,138.1,83.3,138.1z"/>
		<path class="st4" d="M105.6,172.9c-0.5,0-1.1-0.1-1.6-0.3c-1.4-0.3-2.8-0.7-4.2-1.1c-4.7-1.4-9-3.8-12.6-7
			c-3.6-3.3-5.9-7.9-6.5-12.7c-0.2-1.5-0.1-2.9,0.2-4.4c0.1-0.4,0.2-0.8,0.3-1.2c0.1-0.3,0.1-0.4,0.1-0.4c-0.4,1.9-0.4,3.9-0.2,5.9
			c0.7,4.7,3,9.1,6.5,12.4c3.6,3.2,7.8,5.6,12.3,7c1.7,0.6,3.2,1,4.2,1.3C104.5,172.5,105,172.7,105.6,172.9z"/>
		<path class="st6" d="M179,109.4c-2.5-0.3-5.1-0.3-7.7,0.1c-2.5,0.6-4.9,1.5-7.2,2.7c0.5-0.5,1.2-1,1.9-1.3
			c1.6-0.9,3.4-1.5,5.2-1.9c1.8-0.3,3.7-0.4,5.5-0.2C177.5,108.9,178.3,109,179,109.4z"/>
		<path class="st6" d="M169.6,97.2c0.2,0.8,0.2,1.6,0.2,2.5c-0.1,2-0.4,4-1,5.9c-0.6,1.9-1.5,3.7-2.6,5.3c-0.4,0.7-1,1.4-1.6,1.9
			c1.5-2.3,2.7-4.8,3.7-7.4C169.1,102.7,169.5,100,169.6,97.2z"/>
		<path class="st6" d="M72.6,210c1.1,0.7,2.2,1.3,3.4,1.9c5.9,2.6,12.8,1.1,17.2-3.7c0.8-1,1.6-2,2.3-3.1c-0.1,0.4-0.2,0.7-0.4,1
			c-0.5,0.9-1,1.7-1.7,2.4c-4.3,5.1-11.6,6.7-17.6,3.8c-0.9-0.4-1.7-0.9-2.5-1.5C73,210.5,72.8,210.3,72.6,210z"/>
		<path class="st6" d="M65.9,202.8c0.6,0,1.2,0.1,1.7,0.2c1.5,0.3,3.1,0.2,4.6-0.3c1-0.4,1.8-1.1,2.3-2.1c0.3-0.5,0.4-1.1,0.5-1.6
			c0-0.6-0.2-1.2-0.7-1.6c-1-0.9-2.4-1.1-3.6-0.5c-1.3,0.7-2,2.1-2,3.5c0,1.4,0.6,2.8,1.6,3.9c0.9,1,2.1,1.7,3.4,2.2
			c2.2,0.8,4.6,0.8,6.8,0c1.5-0.5,2.9-1.3,4-2.4l0.5-0.5l0.3-0.4c0.2-0.2,0.3-0.4,0.3-0.3c-0.1,0.1-0.1,0.3-0.2,0.4l-0.3,0.5
			l-0.5,0.6c-1.1,1.2-2.5,2.1-4,2.7c-2.3,0.9-4.8,0.9-7.1,0.1c-1.4-0.5-2.6-1.3-3.6-2.3c-1.1-1.1-1.8-2.6-1.8-4.2
			c0-1.6,0.8-3.2,2.2-3.9c1.4-0.7,3.1-0.4,4.2,0.7c0.5,0.5,0.7,1.2,0.7,1.9c0,0.7-0.2,1.3-0.5,1.9c-0.5,1-1.4,1.8-2.5,2.2
			c-1.6,0.5-3.2,0.5-4.8,0.2c-0.6-0.1-1-0.2-1.3-0.3C66.2,203,66.1,202.9,65.9,202.8z"/>
		<path class="st8" d="M105.8,163.6c-0.4-0.2-14.6-5-14.8,9.8s14.7,11.9,14.7,11.4S105.8,163.6,105.8,163.6z"/>
		<path class="st9" d="M101.3,179.2c-0.1-0.1-0.3,0.2-0.7,0.4c-0.6,0.3-1.3,0.3-1.9,0c-1.6-0.6-2.8-3.1-2.9-5.7
			c0-1.3,0.2-2.5,0.8-3.7c0.3-0.9,1-1.7,1.9-2c0.6-0.2,1.3,0.1,1.5,0.7c0.2,0.4,0.1,0.7,0.2,0.7s0.3-0.2,0.2-0.9
			c-0.1-0.4-0.3-0.7-0.6-0.9c-0.4-0.3-0.9-0.5-1.4-0.4c-1.2,0.2-2.3,1.1-2.7,2.3c-0.6,1.3-1,2.7-0.9,4.1c0.1,3,1.6,5.8,3.7,6.4
			c0.8,0.2,1.7,0.1,2.3-0.4C101.2,179.5,101.3,179.2,101.3,179.2z"/>
		<path class="st3" d="M93.3,181.6c-0.2,0.2-0.4,0.3-0.7,0.4c-0.4,0.3-1.2,0.6-2,1.1c-2.3,1.6-4.1,3.8-5.2,6.4
			c-2.9,7.1,0.4,15.2,7.5,18.1c1.7,0.7,3.6,1.1,5.4,1.1c1.3,0,2.6-0.2,3.9-0.6c1.2-0.4,2.4-0.9,3.5-1.6c2-1.3,3.7-3.1,4.8-5.3
			c3.3-6.4,1.1-14.3-5-18.1c-0.9-0.5-1.8-1-2.7-1.4c1,0.3,2,0.7,2.8,1.3c2.5,1.5,4.4,3.7,5.6,6.3c2.9,6.4,0.6,14-5.3,17.8
			c-1.1,0.7-2.3,1.3-3.6,1.7c-1.3,0.4-2.6,0.6-4,0.6c-5.3,0.1-10.2-2.8-12.7-7.6c-3.5-6.5-1.4-14.7,4.9-18.7c0.9-0.5,1.6-0.8,2-1.1
			C92.8,181.8,93.1,181.7,93.3,181.6z"/>
		<path class="st4" d="M82.1,136.6c0,0.2,0,0.5,0,0.7c0,0.7-0.1,1.4-0.2,2.1c-0.4,2.5-1.1,5-2.2,7.3c-1.3,3-3.1,6.3-5.1,10.1
			c-1,1.9-2,4-2.8,6c-0.9,2.2-1.5,4.5-1.8,6.8c-0.6,4.5,0.1,9.2,2,13.3c0.8,1.8,1.8,3.5,3,5.1c1.1,1.5,2.2,2.9,3.2,4.1
			c2,2.5,3.7,4.5,4.9,5.8l1.4,1.6c0.2,0.2,0.3,0.4,0.4,0.6c0,0-0.2-0.1-0.5-0.5s-0.8-0.8-1.4-1.5c-1.2-1.3-3-3.2-5-5.7
			c-1-1.2-2.1-2.6-3.3-4.1c-1.2-1.6-2.3-3.3-3.1-5.2c-1.9-4.3-2.7-9-2.1-13.6c0.3-2.4,0.9-4.7,1.8-6.9c0.8-2.1,1.8-4.1,2.8-6.1
			c2-3.8,3.9-7.1,5.2-10c1.1-2.3,1.8-4.7,2.3-7.2c0.1-0.7,0.2-1.3,0.3-2C82,137,82.1,136.8,82.1,136.6z"/>
		<path class="st6" d="M36,220.4c0,0,0-0.1-0.2-0.3c-0.2-0.3-0.5-0.5-0.8-0.6c-0.5-0.2-1.1-0.1-1.7,0.1c-0.7,0.4-1.2,1.1-1.3,1.9
			c-0.2,1-0.2,2,0,3c0.1,1.2,0.6,2.3,1.4,3.2c1,1,2.3,1.4,3.7,1.1c1.5-0.2,2.9-1.1,3.9-2.3c1-1.4,1.5-3,1.5-4.7
			c0.1-1.8-0.1-3.7-0.5-5.4c-0.8-3.8-2.2-7.6-3.4-11.7s-2.1-8.7-1.2-13.4c0.4-2.4,1.4-4.7,2.9-6.6c1.5-1.9,3.4-3.5,4.5-5.8
			c1.1-2.2,1.7-4.6,1.8-7c0.1-2.4,0-4.7-0.4-7.1c-0.7-4.6-1.9-9-1.9-13.4c-0.2-7.8,3.3-15.3,9.4-20.2c2.3-1.9,4.9-3.3,7.7-4.2
			c2.1-0.7,4.3-1.1,6.5-1.3c1.4-0.1,2.8-0.1,4.2,0.1c0.5,0,0.8,0.1,1.1,0.2c0.1,0,0.2,0,0.4,0.1c-0.1,0-0.3,0-0.4,0l-1.1-0.1
			c-1.4-0.1-2.8-0.1-4.2,0c-2.2,0.2-4.4,0.6-6.4,1.4c-10.2,3.6-16.9,13.3-16.7,24.2c0.1,4.3,1.2,8.7,2,13.3c0.4,2.4,0.5,4.8,0.4,7.2
			c-0.1,2.5-0.8,5-1.9,7.2c-1.1,2.3-3.1,4-4.5,5.8c-1.4,1.9-2.4,4-2.8,6.4c-0.8,4.6,0,9.1,1.2,13.2s2.6,8,3.3,11.8
			c0.4,1.8,0.6,3.7,0.5,5.6c-0.1,1.8-0.6,3.4-1.7,4.9c-1,1.3-2.4,2.1-4,2.4c-1.4,0.3-2.9-0.2-3.9-1.3c-0.8-0.9-1.3-2.1-1.4-3.3
			c-0.2-1-0.2-2,0-3.1c0.1-0.8,0.7-1.6,1.4-2c0.6-0.3,1.2-0.3,1.8-0.1c0.4,0.1,0.7,0.4,0.8,0.7C36,220.1,36,220.2,36,220.4z"/>
		<path class="st7" d="M105.9,235.7c0,0,19.3,9.7,29,8c12.1-2.2,15.2-7.4,15.2-7.4l4.9,11.1l35,227.1H75.1l24.3-232.7L105.9,235.7z"
			/>
		<path class="st4" d="M140,297.2c0,0-6.4-33-32.8-58.9L99.3,216c0,0-9.8,2.1-11.3,6.5c-1,3.5-1.8,7.1-2.2,10.8
			c0,0-34.6,6.7-39.8,13.4s23.1,129.1,23.1,129.1S48,424.1,45.7,440.9c-1.6,11.1-2.5,22.4-2.7,33.6h98.8c0-10.4,4-101,4-101
			L140,297.2z"/>
		<g class="st10">
			<path d="M91.5,248.8c0.9,3.2,2.6,6,4.9,8.3c-0.4-3.1,1.1-6.2,3.9-7.8c2.7-1.5,5.9-2,9-1.4c3,0.6,6,1.6,8.8,2.9
				c-2.5-3.5-5.3-6.8-8.4-9.8c-1.2-1.2-1.4-1.9-3-2.5c-2.4,1-4.8,2.2-7.2,3.4C96.4,243.7,93.7,246,91.5,248.8"/>
		</g>
		<path class="st6" d="M107.1,238.3c-1.9,0.6-3.7,1.3-5.5,2.2c-1.9,1-3.7,2.2-5.3,3.6c-2,1.7-3.7,3.7-5.1,5.9
			c-0.3,0.5-0.6,1-0.9,1.4l-0.2,0.4l-0.2-0.4c-2.3-3.8-3.7-8.2-4.1-12.6c-0.1-1.3-0.1-2.7,0-4c0-0.5,0.1-0.8,0.1-1.1
			s0.1-0.4,0.1-0.4c0,0.5,0,1,0,1.4c0,1.3,0.1,2.6,0.2,3.9c0.5,4.4,1.9,8.6,4.2,12.4h-0.4c0.3-0.4,0.6-0.9,0.9-1.4
			c1.5-2.2,3.2-4.2,5.3-6c1.7-1.4,3.5-2.6,5.5-3.6c1.3-0.6,2.7-1.1,4.1-1.5c0.5-0.1,0.9-0.2,1.2-0.3
			C106.9,238.3,107,238.3,107.1,238.3z"/>
		<path class="st6" d="M131.8,320.9c-0.1-0.3-0.1-0.6-0.2-0.9c-0.1-0.6-0.2-1.4-0.4-2.5c-0.1-0.5-0.2-1.1-0.3-1.8s-0.3-1.4-0.4-2.1
			c-0.3-1.5-0.6-3.3-1.1-5.1c-2.4-9.9-5.6-19.5-9.5-28.9c-2.3-5.5-4.7-10.6-7-15.2s-4.6-8.6-6.6-12s-3.8-6-5-7.7l-1.5-2
			c-0.2-0.2-0.3-0.5-0.5-0.7c0.2,0.2,0.4,0.4,0.6,0.7l1.6,2c1.3,1.8,3.1,4.4,5.2,7.7s4.4,7.4,6.7,12s4.8,9.8,7.1,15.3
			c4,9.4,7.1,19.1,9.4,29c0.5,1.9,0.7,3.6,1,5.2c0.1,0.8,0.3,1.5,0.4,2.1s0.1,1.3,0.2,1.8c0.1,1,0.2,1.9,0.3,2.5
			C131.8,320.4,131.8,320.6,131.8,320.9z"/>
		<path class="st6" d="M94.6,403.4c0,0-0.1,0.1-0.3,0.4l-0.9,1.1l-3.3,3.9c-2.8,3.3-6.5,7.8-10.5,13s-7.4,10-9.8,13.5
			c-1.2,1.7-2.2,3.1-2.9,4.2l-0.8,1.1c-0.1,0.1-0.2,0.3-0.3,0.4c0,0,0.1-0.2,0.2-0.4l0.7-1.2c0.6-1,1.6-2.5,2.8-4.3
			c2.4-3.6,5.8-8.4,9.7-13.6s7.8-9.7,10.6-12.9c1.4-1.6,2.6-2.9,3.4-3.8l1-1C94.5,403.5,94.6,403.4,94.6,403.4z"/>
		<path class="st6" d="M104,412.7c-0.1,0.2-0.2,0.3-0.3,0.5l-1,1.3c-0.9,1.1-2.1,2.7-3.8,4.6c-3.3,3.8-7.9,9-13.3,14.3
			s-10.7,10-14.6,13.2l-0.1,0.1l-0.1-0.1l-4.2-4l-1.1-1.1c-0.3-0.3-0.4-0.4-0.4-0.4c0.2,0.1,0.3,0.2,0.4,0.3l1.2,1l4.3,3.9h-0.3
			c3.8-3.3,9-7.9,14.4-13.3s10.1-10.4,13.4-14.2l3.9-4.5l1-1.2C103.7,412.9,103.8,412.8,104,412.7z"/>
		<path class="st6" d="M103.5,412.3c-1.7-1.5-3.2-3-4.7-4.7c-1.6-1.6-3-3.3-4.3-5.1c1.7,1.5,3.2,3,4.7,4.7
			C100.8,408.8,102.2,410.5,103.5,412.3z"/>
		<g class="st10">
			<path d="M143.3,353.7c-1.1-1.6-3.3-1.9-5.3-1.9c-8,0-15.7,3-22.6,7.1s-12.9,9.4-18.9,14.7c-1.9,1.7-4,3.9-3.6,6.4
				c0.3,1.7,1.6,0.4,2.1,2c0.6,2,3.2,7.3,3.2,7.3c-1.3,1.6-8.1,7.9-9.9,8.8c-10,5-19.7,6.8-29.2,2.4l-1.2,2.1
				c4.4,5.8,9.9,6,17.1,5.7s14.1-3.3,20.4-6.9c4.2-2.4,8.6-5.8,9.1-10.7c0.2-2.1-0.4-4.4,0-6.5c0.9-4.8,6.1-7.2,10.4-9.5
				c7-3.7,13-8.9,17.8-15.3c2.5,0.7,5.2,1.4,7.7,0.5S144.7,355.9,143.3,353.7z"/>
		</g>
		<path class="st6" d="M141.3,314.2c-0.1-0.3-0.1-0.6-0.1-0.9c-0.1-0.6-0.1-1.4-0.2-2.5c-0.2-2.1-0.6-5.2-1.1-9
			c-0.7-4.4-1.6-8.9-2.8-13.2c-0.6-2.5-1.5-5-2.4-7.6l-1.6-3.9c-0.5-1.3-1.1-2.6-1.7-4c-2.3-5-5-9.9-8-14.5
			c-1.4-2.1-2.8-4.1-4.2-5.9l-2-2.6c-0.7-0.8-1.3-1.6-1.9-2.3c-1.2-1.5-2.4-2.8-3.4-4s-1.9-2.1-2.6-2.9l-1.6-1.8
			c-0.2-0.2-0.4-0.4-0.6-0.7c0.2,0.2,0.4,0.4,0.6,0.6l1.7,1.8c0.8,0.8,1.7,1.7,2.7,2.9s2.2,2.4,3.4,3.9l1.9,2.3l2,2.6
			c1.4,1.8,2.8,3.8,4.2,5.9c3,4.6,5.7,9.5,8,14.5c0.6,1.4,1.2,2.7,1.7,4s1,2.7,1.5,4c0.9,2.6,1.8,5.2,2.4,7.7
			c1.2,4.4,2.1,8.8,2.8,13.3c0.5,3.8,0.9,6.9,0.9,9.1c0.1,1,0.1,1.9,0.1,2.5C141.3,313.6,141.3,313.9,141.3,314.2z"/>
		<path class="st6" d="M129.3,474.5c0-0.1,0-0.2,0-0.3c0-0.2,0-0.5,0.1-0.9c0.1-0.8,0.2-2,0.4-3.5s0.4-3.4,0.6-5.5s0.5-4.6,0.8-7.3
			c0.6-5.4,1.1-11.8,1.6-18.9s0.9-15,1.1-23.3s0.2-16.1,0.1-23.3s-0.4-13.6-0.7-19c-0.1-2.7-0.3-5.1-0.4-7.3s-0.3-4-0.4-5.5
			s-0.2-2.6-0.2-3.5c0-0.4,0-0.7-0.1-0.9c0-0.1,0-0.2,0-0.3c0,0.1,0,0.2,0.1,0.3c0,0.2,0.1,0.5,0.1,0.9c0.1,0.8,0.2,2,0.3,3.5
			s0.3,3.4,0.5,5.5s0.4,4.6,0.5,7.3c0.3,5.4,0.6,11.9,0.8,19s0.2,15,0,23.3s-0.6,16.1-1.1,23.3s-1.1,13.6-1.7,19
			c-0.3,2.7-0.6,5.1-0.9,7.3s-0.5,4-0.7,5.5s-0.4,2.6-0.5,3.5l-0.1,0.9C129.3,474.3,129.3,474.4,129.3,474.5z"/>
		<path class="st4" d="M174.5,230.6c0,0,9.7-1.1,20.2,13.1s22.7,59.3,23.3,76.1s5.1,43.4-6.9,51.2s-19.8,7.3-26.1,3.2
			s-10-17.5-10-17.5L174.5,230.6z"/>
		<path class="st4" d="M168,474.5c-10.6-23.9-13.6-41.9-16-71.6s-8.5-92.4-9.8-93.1c-1-0.5-2.9-22.2-3.9-33.7
			c-0.4-4.6,0.4-9.3,2.2-13.6c2.2-5.1,5-11.4,5.4-11.8c0.6-0.6,4.2-14.4,4.2-14.4l0.4-17.7l10.4,9.5l13.6,2.6l13.1,146.5
			c0,0,17.5,44.6,20.5,59.5s0.9,37.8,0.9,37.8"/>
		<g class="st10">
			<path d="M183.5,361.4c-2.9-4-6-8.1-10.1-11s-9.4-4.4-14.1-2.7c-4.4,1.6-7.4,5.7-11.7,7.6l0.6,4.9c2.4,2.5,5.9,2.9,9.3,2
				c3.1-0.8,6-3.2,9.2-2.9c3.1,0.3,5.6,2.8,8.6,3.2c1.4,0.2,3-0.2,4.3,0.5c0.8,0.4,1.4,1,2.1,1.5c0.7,0.5,1.7,0.5,2.4-0.1
				C184.7,363.4,184.1,362.2,183.5,361.4z"/>
		</g>
		<path class="st6" d="M161,228c0,0,0.1,0.1,0.3,0.4s0.5,0.7,0.8,1.2c1,1.5,2,3.1,2.8,4.7c3,5.7,4.9,11.8,5.8,18.2l0.1,0.5l-0.4-0.2
			c-6.4-3.2-13.9-3.8-20.8-1.7l0.2-0.3c0.9,2.7,1.8,5.3,2.6,7.8l0.1,0.2l-0.2,0.1c-3,1.2-5.6,3.1-7.7,5.6c-1.6,1.9-2.9,4.1-3.8,6.4
			c-0.6,1.5-1,3.1-1.1,4.8c-0.1,1.1-0.1,1.7-0.2,1.7c0-0.1,0-0.3,0-0.5c0-0.3,0-0.7,0-1.3c0.1-1.6,0.5-3.3,1-4.8
			c0.8-2.4,2.1-4.6,3.8-6.6c2.1-2.5,4.8-4.5,7.8-5.8l-0.1,0.3c-0.8-2.5-1.7-5-2.6-7.7l-0.1-0.3l0.3-0.1c2.6-0.8,5.3-1.2,8-1.2
			c4.6-0.1,9.1,1,13.2,3.1l-0.4,0.3c-0.8-6.3-2.7-12.4-5.6-18.1c-1.1-2.1-2-3.7-2.7-4.8l-0.8-1.2C161.2,228.3,161.1,228.2,161,228z"
			/>
		<path class="st1" d="M155.4,297.5c-0.8-2.2-3-3.5-5.3-3l-1.2,0.5c-2.2,1.2-2.9,3.9-1.7,6.1s3.9,2.9,6.1,1.7
			C155.1,301.7,156,299.5,155.4,297.5L155.4,297.5z"/>
		<path class="st6" d="M155.4,297.5c0,0,0.1,0.1,0.1,0.3c0.1,0.3,0.1,0.5,0.2,0.8c0.1,1-0.2,2.1-0.8,2.9c-0.4,0.6-0.9,1.1-1.6,1.5
			c-0.7,0.4-1.6,0.6-2.4,0.5c-0.9-0.1-1.8-0.4-2.6-0.9c-0.8-0.6-1.4-1.4-1.7-2.4c-0.6-2.1,0.3-4.4,2.2-5.5l0,0l1.2-0.5l0,0
			c0.9-0.2,1.9-0.1,2.8,0.3c0.7,0.3,1.3,0.7,1.7,1.3c0.3,0.4,0.5,0.8,0.7,1.2C155.3,297.3,155.4,297.5,155.4,297.5
			c-0.3-0.5-0.7-1-1.1-1.5c-0.5-0.5-1-0.9-1.7-1.1c-0.8-0.3-1.7-0.4-2.6-0.2l0,0l-1.2,0.5l0,0c-1.6,1.1-2.3,3-1.8,4.9
			c0.6,1.7,2.1,2.8,3.8,2.9c1.4,0.1,2.8-0.5,3.6-1.7c0.6-0.8,0.9-1.7,0.9-2.7C155.5,297.9,155.4,297.5,155.4,297.5z"/>
		<path class="st1" d="M162.4,370.3c-0.8-2.2-3-3.5-5.3-3l-1.2,0.5c-2.2,1.2-2.9,4-1.7,6.1c1.2,2.2,4,2.9,6.1,1.7
			C162.1,374.5,163,372.4,162.4,370.3L162.4,370.3z"/>
		<path class="st6" d="M162.4,370.3c0,0,0.1,0.1,0.1,0.3c0.1,0.3,0.1,0.5,0.1,0.8c0.1,1-0.2,2.1-0.8,2.9c-0.4,0.6-0.9,1.1-1.6,1.5
			c-0.7,0.4-1.6,0.6-2.4,0.5c-0.9-0.1-1.8-0.4-2.6-0.9c-0.8-0.6-1.4-1.4-1.7-2.4c-0.6-2.1,0.3-4.4,2.2-5.5l0,0l1.2-0.5l0,0
			c0.9-0.2,1.9-0.1,2.8,0.3c0.7,0.3,1.3,0.7,1.7,1.3c0.3,0.4,0.5,0.8,0.7,1.2C162.2,370,162.3,370.2,162.4,370.3
			c-0.3-0.5-0.7-1-1.1-1.5c-0.5-0.5-1-0.9-1.7-1.1c-0.8-0.3-1.7-0.4-2.6-0.2l0,0l-1,0.5l0,0c-1.7,1-2.4,3.1-1.9,5
			c0.5,1.7,2.1,2.9,3.8,3c1.4,0.1,2.8-0.5,3.6-1.7c0.6-0.8,0.9-1.7,0.9-2.7C162.4,370.7,162.3,370.3,162.4,370.3z"/>
		<path class="st1" d="M167,419.5c-0.8-2.2-3-3.5-5.3-3l-1.2,0.5c-2.2,1.2-2.9,3.9-1.7,6.1c1.2,2.2,3.9,2.9,6.1,1.7
			C166.8,423.7,167.6,421.5,167,419.5L167,419.5z"/>
		<path class="st6" d="M167,419.5c0,0,0.1,0.1,0.1,0.3c0.1,0.3,0.1,0.5,0.2,0.8c0.1,1-0.2,2.1-0.8,2.9c-0.4,0.6-0.9,1.1-1.6,1.5
			c-0.7,0.4-1.6,0.6-2.4,0.5c-0.9-0.1-1.8-0.4-2.6-0.9c-0.8-0.6-1.4-1.4-1.7-2.4c-0.6-2.1,0.3-4.4,2.2-5.5l0,0l1.2-0.5l0,0
			c0.9-0.2,1.9-0.1,2.8,0.3c0.7,0.3,1.3,0.7,1.7,1.3c0.3,0.4,0.5,0.8,0.7,1.2C166.9,419.3,167,419.5,167,419.5
			c-0.3-0.5-0.7-1-1.1-1.5c-0.5-0.5-1-0.9-1.7-1.1c-0.8-0.3-1.7-0.4-2.6-0.2l0,0l-1.2,0.5l0,0c-1.7,1-2.4,3-1.9,4.9
			c0.6,1.7,2.1,2.8,3.8,3c1.4,0.1,2.8-0.5,3.6-1.7c0.6-0.8,0.9-1.7,0.9-2.7C167.1,419.9,167,419.5,167,419.5z"/>
		<path class="st6" d="M195.4,307.1c-0.1-0.5-0.1-1.1-0.1-1.6c-0.1-1-0.2-2.5-0.4-4.4c-0.6-4.8-1.6-9.5-3-14.1
			c-1.4-4.6-3-9.1-5-13.5c-0.8-1.7-1.4-3-1.9-4c-0.3-0.5-0.5-1-0.6-1.5c0.3,0.4,0.6,0.9,0.8,1.4c0.5,0.9,1.2,2.2,2,3.9
			c2.1,4.4,3.8,8.9,5.2,13.5c1.4,4.6,2.4,9.4,2.8,14.2c0.2,1.9,0.2,3.4,0.2,4.4C195.4,306,195.4,306.6,195.4,307.1z"/>
		<g class="st10">
			<path d="M138.8,281.8c1.7-9.3,11.9-16.8,21.4-16.8c-0.3-1.8-0.6-3.7-1-5.5l9.4,3.8c1.5-4.6-1-9.9-5.1-12.5s-9.3-1.1-14,0
				c0.8,3.2,1.8,4.6,2.6,7.7C143.7,260.5,138.1,273.4,138.8,281.8"/>
		</g>
		<path class="st6" d="M204.1,422.4c-0.1-0.2-0.2-0.4-0.3-0.6c-0.2-0.4-0.4-1-0.6-1.7l-2.3-6.2l-7.3-20.7
			c-2.9-8.1-5.5-15.4-7.5-20.6c-1-2.6-1.8-4.7-2.3-6.2l-0.6-1.7c-0.1-0.2-0.1-0.4-0.2-0.6c0.1,0.2,0.2,0.4,0.3,0.6
			c0.2,0.4,0.4,1,0.7,1.7c0.6,1.5,1.5,3.5,2.5,6.2c2,5.2,4.8,12.5,7.6,20.6s5.4,15.4,7.2,20.7c0.9,2.6,1.6,4.8,2.1,6.3
			c0.2,0.7,0.4,1.3,0.6,1.7C204,422,204,422.2,204.1,422.4z"/>
		<path class="st6" d="M190.9,474.5c-0.1-0.2-0.3-0.5-0.4-0.7c-0.3-0.5-0.6-1.2-1-2.1c-0.9-1.8-2.1-4.5-3.6-7.7
			c-3-6.6-6.8-15.8-10.4-26.1s-6.4-20-8.1-27c-0.9-3.5-1.6-6.3-2-8.3c-0.2-0.9-0.4-1.7-0.5-2.3c-0.1-0.3-0.1-0.5-0.1-0.8
			c0.1,0.2,0.2,0.5,0.2,0.8c0.1,0.6,0.4,1.3,0.6,2.2c0.5,2,1.2,4.8,2.2,8.3c1.9,7,4.6,16.5,8.3,26.9s7.4,19.6,10.3,26.2
			c1.4,3.3,2.6,6,3.4,7.8c0.4,0.9,0.7,1.6,0.9,2.1C190.7,473.9,190.8,474.2,190.9,474.5z"/>
		<path class="st4" d="M45.9,246.7c0,0-14.3,11-17.1,35.1s2.5,55.2,2.5,55.2l1.8,21.3c0,0-2.2,11.5,2.2,19.8s0,13.7,13,17.7
			s12.6,9,28.1,6.5s22-13,22-13l-17-38.3c0,0-0.7-4.5-9-0.7L68,294.8C68,294.8,53.3,249.1,45.9,246.7z"/>
		<path class="st6" d="M68,294.8c0,0,0,0.3,0.1,1s0.1,1.6,0.3,2.9c0.2,2.5,0.5,6.3,0.9,11.1c0.8,9.6,1.9,23.5,3.2,40.6l-0.3-0.2
			c1.5-0.7,3.1-1.2,4.8-1.5c0.9-0.1,1.8,0,2.7,0.3c0.9,0.3,1.6,1.1,1.9,2v0l17,38.2l0.1,0.1l-0.1,0.1c-4.9,7-13.2,11.6-22.2,13.1
			c-2.3,0.4-4.6,0.6-6.9,0.7c-2.4,0.1-4.7-0.3-6.9-1c-2.2-0.9-4.3-1.9-6.4-3c-2.1-1.1-4.3-2-6.5-2.7c-1.9-0.6-3.7-1.2-5.6-2
			c-1.8-0.8-3.4-2.1-4.6-3.6c-1-1.7-1.7-3.5-2-5.5c-0.3-1.9-0.9-3.7-1.6-5.4c-0.8-1.7-1.6-3.4-2.2-5.2c-0.5-1.8-0.9-3.6-1.1-5.5
			c-0.4-3.6-0.3-7.3,0.3-11v0.1c-0.6-7.3-1.2-14.4-1.8-21.3l0,0c-2.1-12.7-3.2-25.6-3.3-38.5c-0.1-5.4,0.2-10.9,0.8-16.3
			c0.5-4.6,1.5-9.1,3-13.5c1.2-3.6,2.8-7,4.7-10.2c1.4-2.4,3-4.7,4.8-6.8c1.1-1.3,2.3-2.6,3.5-3.8c0.4-0.4,0.8-0.7,1-0.9
			c0.1-0.1,0.2-0.2,0.4-0.3l-0.3,0.3c-0.2,0.2-0.5,0.5-1,0.9c-1.2,1.2-2.4,2.5-3.5,3.8c-1.7,2.2-3.3,4.5-4.7,6.9
			c-1.9,3.2-3.4,6.7-4.6,10.2c-1.5,4.4-2.5,8.9-3,13.5c-0.6,5.4-0.8,10.8-0.8,16.2c0.2,12.9,1.3,25.7,3.4,38.4l0,0l0,0
			c0.6,6.8,1.2,13.9,1.8,21.3v0.1c-0.6,3.6-0.7,7.2-0.3,10.8c0.2,1.8,0.5,3.6,1.1,5.4c0.6,1.8,1.3,3.5,2.2,5.2
			c0.7,1.8,1.2,3.6,1.6,5.5c0.3,1.9,0.9,3.7,1.9,5.3c1.2,1.5,2.7,2.7,4.4,3.5c1.8,0.8,3.6,1.4,5.5,2c2.3,0.8,4.5,1.7,6.6,2.8
			c2.1,1.1,4.2,2.1,6.4,3c4.4,1.5,9.1,1,13.5,0.3c4.4-0.7,8.6-2.2,12.4-4.4c1.9-1.1,3.6-2.3,5.2-3.8c1.6-1.4,3-2.9,4.2-4.7v0.2
			l-16.9-38.3v0c-0.2-0.8-0.8-1.5-1.6-1.8c-0.8-0.3-1.6-0.4-2.5-0.3c-1.6,0.3-3.2,0.7-4.7,1.4l-0.3,0.1v-0.3
			c-1.3-17.1-2.3-30.9-3.1-40.6c-0.3-4.8-0.6-8.5-0.8-11.1c-0.1-1.3-0.2-2.2-0.2-2.9S68,294.8,68,294.8z"/>
		<path class="st6" d="M47.4,371c0-0.5,0.1-0.9,0.2-1.4c0.3-1.2,0.7-2.4,1.2-3.5c1.6-3.8,4.2-7.2,7.5-9.8c3.2-2.7,7-4.6,11-5.6
			c1.2-0.3,2.5-0.5,3.7-0.5c0.5,0,0.9,0,1.4,0.1c-1.7,0.1-3.4,0.4-5,0.8c-3.9,1.1-7.6,3.1-10.7,5.7c-3.2,2.5-5.8,5.8-7.5,9.5
			C47.8,369.1,47.5,371,47.4,371z"/>
		<path class="st6" d="M79.3,397.5c-0.2-0.1-0.4-0.1-0.5-0.2c-0.5-0.3-1-0.5-1.5-0.8c-1.7-1.1-3.3-2.5-4.7-4c-2-2.3-3.8-4.8-5.1-7.6
			c-1.6-3.4-3-6.9-4-10.5c-1.2-3.8-2.2-7.5-2-11c0.1-1.7,0.5-3.3,1.3-4.8c0.7-1.2,1.6-2.4,2.7-3.3c1.5-1.4,3.2-2.6,4.9-3.8
			c0.6-0.4,1.1-0.7,1.4-0.9c0.2-0.1,0.3-0.2,0.5-0.3c-0.1,0.1-0.3,0.3-0.5,0.4l-1.4,1c-1.7,1.2-3.3,2.4-4.8,3.9
			c-1,1-1.9,2.1-2.6,3.3c-0.7,1.4-1.1,2.9-1.2,4.5c-0.2,3.4,0.8,7.1,2,10.8c1,3.6,2.4,7,3.9,10.4c1.3,2.7,3,5.3,4.9,7.6
			c1.3,1.5,2.9,2.9,4.5,4.1C78.6,397.1,79.3,397.4,79.3,397.5z"/>
		<path class="st6" d="M43.7,262.8c0.4,0.3,0.7,0.6,1.1,1c0.7,0.6,1.7,1.5,2.9,2.6c2.5,2.2,6.1,4.9,9.9,8.3
			c3.3,2.9,5.9,6.4,7.8,10.3c0.5,1.2,0.9,2.5,1.2,3.7c0.1,0.3,0.1,0.7,0.2,1.1c0,0.2,0,0.4,0,0.4c-0.4-1.7-1-3.4-1.7-5
			c-2-3.8-4.6-7.2-7.8-10.1c-3.7-3.4-7.3-6.2-9.8-8.4c-1.2-1.1-2.2-2.1-2.8-2.8C44.2,263.6,43.9,263.2,43.7,262.8z"/>
		<g class="st10">
			<path d="M74.4,394.2c-3.6-3.3-6.4-7.5-8.1-12.2c-1.8-4.4-3.3-9-4.4-13.6l-0.2,0.1c-1.3,6.1,1.4,11.9,3.4,17.8
				c0.7,2.4,1.8,4.7,3.3,6.8c1.6,1.9,4.3,3.2,6.7,2.5C75.2,395,74.8,394.5,74.4,394.2z"/>
		</g>
		<path class="st8" d="M76.1,354.9l51.1-30.1l3.3,30l-42.3,33.3c0,0-6.6-9.7-8.8-17C77.8,365.8,76.7,360.4,76.1,354.9z"/>
		<path class="st0" d="M158.9,325l21-16.9c0.7-0.6,1.7-0.9,2.6-0.9l29.4,0.1c1.2,0,2.2,0.9,2.2,2.1c0.2,1.2-0.2,2.3-1,3.2
			l-44.6,36.8l-35.7-2.7L158.9,325z"/>
		<path class="st8" d="M127.2,324.8c0,0,11.3-9.9,14.1-10.6s15.5-1.7,15.5-1.7l11.2,5.2l-6.2,5c-4.7-0.6-6.1-2.3-6.1-2.3l-7.4,1.1
			L127.2,324.8z"/>
		<path class="st8" d="M140.4,319.8l19.6,5l27.6,1.6c0,0,0.6,5.5-4.9,6.6c-3.3,0.6-9,1.5-9,1.5s-1,5.1-5.1,6.6c0,0-1.6,3.7-3.7,5.2
			c-0.2,0.2-0.5,0.3-0.8,0.4c-2.6,1-7.2,8.5-10.6,9.8s-22.9-1.7-22.9-1.7l-3.3-30L140.4,319.8z"/>
		<path class="st9" d="M147.3,334.9c0-0.1,1.5,0.2,4,0.5c3.2,0.4,6.4,0.5,9.7,0.5c3.2-0.1,6.4-0.3,9.6-0.8c2.4-0.4,3.9-0.7,4-0.6
			c-0.3,0.2-0.7,0.3-1,0.4c-0.7,0.2-1.6,0.4-2.9,0.7c-3.2,0.6-6.4,0.9-9.7,1c-3.3,0.1-6.5-0.1-9.7-0.6c-1.2-0.2-2.2-0.4-2.9-0.5
			C148,335.1,147.6,335,147.3,334.9z"/>
		<path class="st9" d="M151.6,342.4c0.1,0.6,0.1,1.3,0,1.9c-0.1,0.7-0.4,1.4-0.9,1.9c-0.6,0.6-1.5,1-2.4,1c-0.9,0-1.7-0.2-2.5-0.5
			c-0.7-0.3-1.3-0.6-1.9-0.9c-1-0.5-1.7-0.7-1.7-0.8c0.6,0,1.3,0.1,1.9,0.4c1.3,0.7,2.7,1.1,4.2,1.2c0.8,0,1.5-0.3,2.1-0.8
			c0.4-0.5,0.7-1.1,0.9-1.7C151.3,343.5,151.4,343,151.6,342.4z"/>
		<path class="st9" d="M165.8,343.1c-0.6,0.3-1.3,0.6-2,0.7c-1.7,0.4-3.4,0.8-5.1,1c-1.7,0.3-3.4,0.4-5.1,0.5
			c-0.7,0.1-1.4,0.1-2.1-0.1c0-0.2,3.3-0.3,7.2-1S165.7,342.9,165.8,343.1z"/>
		<path class="st9" d="M152,352.1c-0.8,0.9-1.8,1.4-3,1.6c-1.1,0.4-2.3,0.3-3.4-0.1c0-0.1,1.5,0,3.3-0.4S151.9,352,152,352.1z"/>
		<path class="st9" d="M158.8,351.2c0,0.1-0.9,0.5-2,0.7c-0.7,0.2-1.4,0.3-2.1,0.2c0-0.1,0.9-0.5,2-0.7
			C157.4,351.2,158.1,351.1,158.8,351.2z"/>
		<path class="st9" d="M159.9,324.8c-0.1,0.2-4.2-0.8-9.1-2.2c-2.5-0.7-4.7-1.5-6.4-2c-0.9-0.3-1.7-0.6-2.6-1.1
			c0.9,0.2,1.8,0.4,2.7,0.7l6.4,1.9l6.4,1.9C158.9,324.4,159.9,324.7,159.9,324.8z"/>
		<path class="st8" d="M188.4,329.3c0,0-2.2-0.6-0.2-4.1s8.7,0,8.7,0l8.5,4.2c0,0,2.2,4.1,0,5.4l-1.5,2.2c0,0,3.4,2.9,2.4,5.9
			c-0.7,1.7-2.4,2.8-4.2,2.8c0,0,0.8,5.7-0.8,8c-0.8,1.3-1.9,2.2-3.3,2.7c-1,3.1-3.4,5.6-6.5,6.7c-5.3,1.8-8.2,2.2-9.9,0
			c-1.1-1.6-2.1-3.2-2.9-5c0,0-12.2-5.2-12.7-8.3s0-3.4,0-3.4s-1.2-2.5-0.1-4.5s5.8-0.7,5.8-0.7l15.2,2.3c0,0-12.4-4.6-14-6.3
			s-0.2-4.1,4.6-3.9s19.5,1.7,19.5,1.7c-0.4-0.7-1.1-1.3-1.8-1.7c-1-0.3-4.1-1.8-4.1-1.8L188.4,329.3z"/>
		<path class="st9" d="M193.8,351.6c0,0.1-6.2-0.9-13.8-2.3s-13.7-2.7-13.7-2.8s6.2,0.9,13.8,2.3S193.9,351.5,193.8,351.6z"/>
		<path class="st9" d="M187.4,360.4c-1.5-0.1-3-0.3-4.5-0.8c-1.2-0.3-2.3-0.6-3.1-0.9c-0.3-0.1-0.6-0.2-0.9-0.4
			c-0.1,0-0.2-0.1-0.2-0.2c-0.1-0.1,0-0.1,0-0.1s1.9,0.5,4.3,1.1C184.5,359.4,186,359.8,187.4,360.4z"/>
		<path class="st9" d="M199,344.6c0,0.1-3-0.2-6.6-0.5s-6.6-0.4-6.6-0.6c2.2-0.2,4.5-0.2,6.7,0.1C194.6,343.7,196.8,344,199,344.6z"
			/>
		<path class="st9" d="M202,336.6c-0.1,0.1-1.3-0.6-3-1s-3.1-0.5-3.1-0.6c1.1-0.3,2.2-0.3,3.3,0.1
			C200.2,335.2,201.2,335.8,202,336.6z"/>
		<path class="st6" d="M212.8,309.8c-0.2,0-0.4,0-0.6,0l-1.6-0.1c-1.4-0.1-3.3-0.2-5.8-0.2c-4.9-0.1-11.6-0.2-19,0.3
			c-1.8,0.1-3.7,0.1-5.1,1c-0.7,0.5-1.4,1-2,1.6l-1.9,1.6l-6.6,5.5l-4.5,3.7l-1.2,1c-0.3,0.2-0.4,0.3-0.5,0.3
			c0.1-0.1,0.2-0.3,0.4-0.4l1.2-1.1l4.4-3.8l6.5-5.6l1.9-1.6c0.6-0.6,1.3-1.1,2.1-1.6c0.8-0.5,1.7-0.8,2.6-0.9
			c0.9-0.1,1.8-0.2,2.8-0.2c6.4-0.4,12.7-0.4,19.1-0.1c2.4,0.1,4.4,0.3,5.8,0.4l1.6,0.2C212.5,309.7,212.6,309.8,212.8,309.8z"/>
		<path class="st3" d="M194.8,313.9c-0.4-0.4-0.9-0.6-1.5-0.4h0.1l-0.2,0.1h-0.1c-0.4,0.1-0.8,0.4-1.1,0.7c-0.3,0.5-0.3,1.1,0.1,1.5
			c0.2,0.2,0.5,0.3,0.8,0.3c0.6,0.1,1.2-0.1,1.7-0.6C195.1,315.2,195.1,314.5,194.8,313.9z"/>
	</g>
	<g id="freepik--Desk--inject-4">
		<path class="st6" d="M464.8,474.5c0,0.1-97.9,0.3-218.8,0.3s-218.8-0.1-218.8-0.3s97.9-0.3,218.8-0.3S464.8,474.3,464.8,474.5z"/>
	</g>
	<g id="freepik--Icons--inject-4">
		<path class="st7" d="M303.2,344.2c0,3.5-2.8,6.4-6.4,6.4s-6.4-2.8-6.4-6.4c0-3.5,2.8-6.4,6.4-6.4S303.2,340.6,303.2,344.2
			L303.2,344.2z"/>
		<path class="st7" d="M321,331.4c0,3.5-2.8,6.4-6.4,6.4c-3.5,0-6.4-2.8-6.4-6.4c0-3.5,2.8-6.4,6.4-6.4c0,0,0,0,0,0
			C318.1,325,321,327.9,321,331.4C321,331.4,321,331.4,321,331.4z"/>
		<path class="st7" d="M321.1,358.4c-0.3,3.5-3.4,6.1-6.9,5.8s-6.1-3.4-5.8-6.9c0.3-3.3,3-5.9,6.4-5.9
			C318.4,351.6,321.2,354.7,321.1,358.4z"/>
		<path class="st7" d="M312.8,357.6c-0.3,0.4-4.5-2-9.5-5.4s-8.7-6.4-8.5-6.8s4.5,2,9.5,5.4S313.1,357.2,312.8,357.6z"/>
		<path class="st7" d="M313.3,331c0.3,0.4-3,3.4-7.3,6.8s-8.1,5.8-8.4,5.4s3-3.4,7.3-6.8S313,330.6,313.3,331z"/>
		<path class="st1" d="M431.6,249.8l-16.4-6l-16.2,5.9c-2.1,1-3.9,1.6-3.9,3.6v9.9c0,6.9,1.8,13.7,5.4,19.6
			c3.5,5.9,8.7,10.7,14.9,13.5c6.6-2.2,11.6-8.1,14.6-13.1c3.5-5.9,5.4-12.7,5.4-19.6v-8.9C435.5,252.3,433.9,250.2,431.6,249.8z"/>
		<path class="st6" d="M431.6,249.8c0.3,0.1,0.7,0.2,1,0.4c1,0.4,1.8,1.2,2.3,2.1c0.3,0.7,0.5,1.5,0.5,2.3c0,0.8,0,1.8,0,2.7
			c0,2,0,4.2,0,6.7c0,6-1.5,11.9-4.2,17.2c-1.6,3.2-3.7,6.2-6.1,8.8c-2.6,2.9-6,5.2-9.7,6.5h-0.1h-0.1c-5.4-2.5-10-6.3-13.4-11.1
			c-4-5.7-6.4-12.4-6.9-19.4c-0.1-1.6-0.1-3.3-0.1-4.9v-4.6c0-0.8,0-1.5,0-2.3c0-0.4,0-0.7,0-1.1c0-0.4,0.1-0.8,0.3-1.1
			c0.4-0.6,1-1.1,1.8-1.4c0.6-0.4,1.3-0.6,1.9-0.9l0,0l16.3-5.9h0.1l12,4.5l3.2,1.2l0.8,0.3L431.6,249.8l-0.3-0.1l-0.8-0.3l-3.2-1.1
			l-12.1-4.4h0.1l-16.2,6l0,0c-0.6,0.3-1.3,0.6-1.9,0.9c-0.6,0.3-1.2,0.7-1.6,1.3c-0.3,0.7-0.4,1.4-0.3,2.1v2.3c0,1.5,0,3.1,0,4.7
			s0,3.2,0.1,4.8c0.5,6.9,2.8,13.5,6.8,19.1c3.4,4.8,7.9,8.6,13.3,11h-0.1c3.6-1.3,6.9-3.5,9.5-6.4c2.4-2.6,4.5-5.5,6.2-8.7
			c2.7-5.3,4.1-11.1,4.2-17c0-2.5,0-4.8,0-6.7s0.2-3.7-0.4-4.9c-0.4-0.9-1.2-1.7-2.2-2.1c-0.3-0.1-0.6-0.3-0.7-0.3L431.6,249.8z"/>
		<path class="st4" d="M426.6,276.3h-3.4v-18.7c0-4.4-3.6-8-8-8s-8,3.6-8,8v18.7h-3.4v-18.7c0-6.3,5.1-11.4,11.4-11.4
			s11.4,5.1,11.4,11.4V276.3z"/>
		<g class="st11">
			<path d="M426.6,276.3h-3.4v-18.7c0-4.4-3.6-8-8-8s-8,3.6-8,8v18.7h-3.4v-18.7c0-6.3,5.1-11.4,11.4-11.4s11.4,5.1,11.4,11.4V276.3
				z"/>
		</g>
		<path class="st7" d="M403.2,267.9h24c1.9,0,3.4,1.5,3.4,3.4v13c0,1.9-1.5,3.4-3.4,3.4h-24c-1.9,0-3.4-1.5-3.4-3.4v-13
			C399.8,269.4,401.3,267.9,403.2,267.9z"/>
		<g class="st12">
			<path d="M417.8,275.2c0-1.4-1.1-2.6-2.6-2.6s-2.6,1.1-2.6,2.6c0,1.2,0.8,2.2,1.9,2.5v3.9h1.4v-3.9
				C417,277.4,417.8,276.4,417.8,275.2z"/>
		</g>
		<path class="st5" d="M401.4,285.8c-0.1,0-0.1-3.3-0.1-7.4s0-7.4,0.1-7.4s0.1,3.3,0.1,7.4S401.5,285.8,401.4,285.8z"/>
		<path class="st5" d="M413.2,278.5c-0.1,0-0.2-0.1-0.3-0.2c-0.3-0.2-0.5-0.4-0.7-0.7c-1.2-1.6-0.9-3.9,0.7-5.1
			c0.2-0.1,0.4-0.3,0.6-0.4c0.3-0.1,0.6-0.2,0.9-0.3c0.2,0,0.4,0,0.4,0c-0.4,0.1-0.8,0.3-1.2,0.5c-1.7,1-2.4,3.2-1.4,4.9
			c0.1,0.1,0.1,0.2,0.2,0.3C412.6,277.9,412.9,278.3,413.2,278.5z"/>
		<path class="st7" d="M459.7,170.9c0.6-0.4,1.3-0.7,2-0.9l0.4-2l3.4-0.1l0.5,2c0.7,0.2,1.4,0.5,2.1,0.8l1.7-1.1l2.5,2.4l-1.1,1.8
			c0.4,0.6,0.7,1.3,0.9,2l2,0.4l0.1,3.4l-2,0.5c-0.2,0.7-0.5,1.4-0.8,2.1l1.1,1.7l-2.4,2.5l-1.8-1.1c-0.6,0.4-1.3,0.7-2,0.9l-0.4,2
			l-3.4,0.1l-0.5-2c-0.7-0.2-1.4-0.5-2.1-0.8l-1.7,1.1l-2.5-2.4l1.1-1.8c-0.4-0.6-0.7-1.3-0.9-2.1l-2-0.4l-0.1-3.4l2-0.5
			c0.2-0.7,0.5-1.4,0.8-2.1l-1.1-1.7l2.4-2.5L459.7,170.9L459.7,170.9z M461.5,175.5c-1.4,1.5-1.4,3.8,0.1,5.2s3.8,1.4,5.2-0.1
			c1.4-1.5,1.4-3.8-0.1-5.2C465.2,174,462.9,174,461.5,175.5C461.5,175.5,461.5,175.5,461.5,175.5z"/>
		<path class="st4" d="M461.5,175.5c0.2-0.2,0.4-0.4,0.7-0.6c1.2-0.8,2.8-0.8,4,0c0.6,0.4,1,0.9,1.3,1.5c0.2,0.3,0.3,0.7,0.3,1
			c0.1,0.4,0.1,0.8,0,1.1c-0.1,0.8-0.4,1.5-1,2.1c-0.6,0.6-1.3,1-2.1,1.1c-0.4,0.1-0.8,0.1-1.1,0c-0.3,0-0.7-0.1-1-0.3
			c-0.6-0.3-1.1-0.7-1.5-1.3c-0.3-0.5-0.5-1-0.6-1.6c-0.1-0.8,0-1.7,0.5-2.4C461.1,175.9,461.3,175.6,461.5,175.5
			c0-0.1-0.2,0.2-0.5,0.7c-0.4,0.7-0.5,1.5-0.4,2.4c0.1,0.6,0.3,1.1,0.6,1.5c0.4,0.5,0.9,0.9,1.5,1.2c0.3,0.1,0.7,0.2,1,0.3
			c0.4,0.1,0.7,0.1,1.1,0c1.5-0.3,2.7-1.5,2.9-3c0.1-0.7,0-1.4-0.3-2.1c-0.3-0.6-0.7-1.1-1.2-1.4c-1.2-0.8-2.7-0.8-3.9-0.1
			C462,175.1,461.7,175.3,461.5,175.5z"/>
		<path class="st6" d="M459.7,170.9l-0.1-0.1l-0.3-0.2c-0.3-0.2-0.8-0.4-1.3-0.8l0,0c-0.6,0.6-1.4,1.5-2.4,2.5v-0.1l1.1,1.7l0,0l0,0
			c-0.4,0.7-0.6,1.3-0.8,2.1l0,0l0,0l-2,0.5l0.1-0.1c0,1.1,0,2.2,0.1,3.4l-0.1-0.1l2,0.4h0l0,0c0.2,0.7,0.5,1.4,0.9,2v0.1l0,0
			l-1.1,1.8V184l2.5,2.4h-0.1l1.7-1.1h0h0.1c0.6,0.4,1.3,0.6,2,0.8h0.1v0.1c0.2,0.6,0.3,1.3,0.5,2l-0.1-0.1l3.4-0.1l-0.1,0.1
			c0.1-0.6,0.3-1.3,0.4-2v-0.1h0.1c0.7-0.2,1.4-0.5,2-0.9l0,0h0.1h0l1.8,1.1H470l2.4-2.5v0.1l-1.1-1.7V182l0,0
			c0.4-0.6,0.6-1.3,0.8-2.1v-0.1h0.1l2-0.5l-0.1,0.1c0-1.2,0-2.3-0.1-3.4l0.1,0.1l-2-0.4h0v-0.1c-0.2-0.7-0.5-1.4-0.9-2l0,0v-0.1
			l1.1-1.8v0.1l-2.5-2.4h0.1l-1.7,1.1l0,0l0,0c-0.6-0.4-1.3-0.6-2-0.8l0,0l0,0l-0.5-2l0.1,0.1h-3.4h0c-0.2,0.8-0.3,1.5-0.4,2l0,0
			l0,0c-0.5,0.1-1.1,0.3-1.6,0.6l-0.4,0.2l-0.1,0.1l0.1-0.1l0.4-0.2c0.5-0.3,1-0.5,1.6-0.6l0,0l0.4-2l0,0l0,0l3.4-0.1h0l0,0
			c0.2,0.6,0.3,1.3,0.5,2l0-0.1c0.7,0.2,1.4,0.4,2.1,0.8h-0.1l1.7-1.1h0h0l2.5,2.4l0,0.1v0.1l-1.1,1.8v-0.1c0.4,0.6,0.7,1.3,0.9,2.1
			l-0.1-0.1l2,0.4h0.1v0.1c0,1.1,0,2.3,0.1,3.4v0.1h-0.1l-2,0.5l0.1-0.1c-0.2,0.7-0.5,1.4-0.8,2.1V182l1.1,1.7l0,0.1l-0.1,0.1
			l-2.4,2.5l-0.1,0.1l-0.1-0.1l-1.8-1.1h0.1c-0.6,0.4-1.3,0.7-2.1,0.9l0.1-0.1c-0.1,0.7-0.3,1.4-0.4,2v0.1H466l-3.4,0.1h-0.1v-0.1
			c-0.2-0.7-0.3-1.4-0.5-2l0.1,0.1c-0.7-0.2-1.4-0.5-2.1-0.8h0.1l-1.7,1.1h-0.1l-0.1-0.1l-2.5-2.4h0v-0.1l1.1-1.8v0.1
			c-0.4-0.6-0.7-1.3-0.9-2.1l0.1,0.1l-2-0.4h-0.1v-0.1c0-1.2,0-2.3,0-3.4v-0.1h0.1l2-0.5l0,0.1c0.2-0.7,0.5-1.4,0.8-2.1v0.1
			l-1.1-1.7l0,0l0,0l2.4-2.4l0,0l0,0l1.3,0.8l0.3,0.2L459.7,170.9z"/>
		<path class="st7" d="M439.3,167.8c0.4-0.2,0.8-0.4,1.2-0.5l0.3-1.2h2l0.3,1.2c0.4,0.1,0.8,0.3,1.2,0.5l1-0.7l1.5,1.4l-0.6,1.1
			c0.2,0.4,0.4,0.8,0.5,1.2l1.3,0.2v2.1l-1.2,0.3c-0.1,0.4-0.3,0.9-0.5,1.3l0.7,1l-1.4,1.5l-1.1-0.6c-0.4,0.2-0.8,0.4-1.2,0.5
			l-0.3,1.2h-2l-0.3-1.2c-0.4-0.1-0.9-0.3-1.2-0.5l-1,0.7l-1.5-1.4l0.6-1.1c-0.2-0.4-0.4-0.8-0.5-1.2l-1.2-0.3v-2l1.1-0.2
			c0.1-0.4,0.3-0.9,0.5-1.2l-0.7-1l1.4-1.5L439.3,167.8L439.3,167.8z M440.4,170.6c-0.8,0.9-0.8,2.3,0.1,3.1
			c0.9,0.8,2.3,0.8,3.1-0.1c0.8-0.9,0.8-2.3-0.1-3.1c0,0,0,0,0,0C442.6,169.7,441.2,169.7,440.4,170.6L440.4,170.6z"/>
		<path class="st4" d="M440.4,170.6c0.1-0.1,0.3-0.3,0.4-0.4c0.4-0.3,0.9-0.4,1.4-0.3c1,0.1,1.8,0.9,2,1.9c0,0.2,0,0.5,0,0.7
			c-0.1,0.5-0.3,0.9-0.6,1.3c-0.3,0.3-0.8,0.6-1.3,0.6c-0.2,0-0.4,0-0.7,0c-0.2,0-0.4-0.1-0.6-0.2c-0.4-0.2-0.7-0.4-0.9-0.8
			c-0.2-0.3-0.3-0.6-0.4-1c-0.1-0.5,0-1,0.2-1.4C440.1,170.8,440.2,170.7,440.4,170.6c-0.1,0.2-0.2,0.3-0.3,0.5
			c-0.2,0.4-0.3,0.9-0.3,1.4c0.1,0.3,0.2,0.6,0.4,0.9c0.2,0.3,0.5,0.6,0.9,0.7c0.2,0.1,0.4,0.1,0.6,0.2c0.2,0,0.4,0,0.6,0
			c0.9-0.2,1.6-0.9,1.8-1.8c0-0.2,0-0.4,0-0.6c0-0.2-0.1-0.4-0.2-0.6c-0.2-0.3-0.4-0.6-0.7-0.9c-0.3-0.2-0.6-0.3-0.9-0.3
			c-0.5-0.1-1,0-1.4,0.3C440.7,170.4,440.5,170.5,440.4,170.6z"/>
		<path class="st6" d="M439.3,167.8L439.3,167.8l-0.3-0.1l-0.8-0.5l0,0l-1.4,1.5l0,0l0.7,1l0,0c-0.2,0.4-0.4,0.8-0.5,1.2l0,0l0,0
			l-1.2,0.3l0,0c0,0.6,0,1.3,0,2l0,0l1.2,0.3l0,0l0,0c0.1,0.4,0.3,0.8,0.5,1.2l0,0l0,0l-0.6,1.1v-0.1l1.5,1.4h-0.1l1-0.7l0,0l0,0
			c0.4,0.2,0.8,0.4,1.2,0.5l0,0l0,0c0.1,0.4,0.2,0.8,0.3,1.2l-0.1-0.1h2l-0.1,0.1c0.1-0.4,0.2-0.8,0.3-1.2l0,0l0,0
			c0.4-0.1,0.8-0.3,1.2-0.5l0,0l0,0l0,0l1.1,0.6h-0.1l1.4-1.5v0.1l-0.7-1l0,0l0,0c0.2-0.4,0.4-0.8,0.5-1.2l0,0l0,0l1.2-0.3v0.1
			c0-0.7,0-1.4,0-2.1v0.1l-1.2-0.3l0,0l0,0c-0.1-0.4-0.3-0.8-0.5-1.2l0,0l0,0c0.2-0.4,0.4-0.7,0.6-1.1v0.1l-1.5-1.4h0.1l-1,0.7h0
			c-0.4-0.2-0.8-0.4-1.2-0.5l0,0l0,0c-0.1-0.4-0.2-0.8-0.3-1.2l0,0h-2l0,0c-0.1,0.5-0.2,0.9-0.3,1.2l0,0
			C440,167.6,439.7,167.7,439.3,167.8l-0.1,0.1h-0.1l0.1-0.1L439.3,167.8c0.4-0.2,0.7-0.3,1-0.4l0,0l0.3-1.2l0,0l0,0h2l0,0l0,0
			c0.1,0.4,0.2,0.8,0.3,1.2l0,0c0.4,0.1,0.9,0.3,1.3,0.5l0,0l1-0.7l0,0l0,0l1.5,1.4l0,0l0,0c-0.2,0.4-0.4,0.7-0.6,1.1v-0.1
			c0.2,0.4,0.4,0.8,0.5,1.2l0,0l1.5,0.1l0,0l0,0c0,0.7,0,1.4,0,2.1l0,0l0,0l-1.2,0.3h0c-0.1,0.4-0.3,0.9-0.5,1.3v-0.1
			c0.2,0.4,0.5,0.7,0.7,1l0,0l0,0l-1.4,1.5l0,0l0,0l-1.1-0.6h0.1c-0.4,0.2-0.8,0.4-1.2,0.5v-0.1c-0.1,0.4-0.2,0.8-0.3,1.2l0,0l0,0
			h-2h0V178c-0.1-0.4-0.2-0.8-0.3-1.2h0c-0.4-0.1-0.9-0.3-1.3-0.5h0.1l-1,0.7l0,0l0,0l-1.5-1.4l0,0l0,0l0.6-1.1v0.1
			c-0.2-0.4-0.4-0.8-0.5-1.2l0,0l-1.2-0.3l0,0l0,0c0-0.7,0-1.4,0-2l0,0l0,0l1.2-0.3l0,0c0.1-0.4,0.3-0.9,0.5-1.3l0,0l-0.7-1l0,0
			l1.4-1.5l0,0l0.8,0.5l0.2,0.1L439.3,167.8z"/>
		<path class="st13" d="M439,185.8c1-0.3,2-0.4,3.1-0.4l1.4-2.5l4.6,1.3L448,187c0.9,0.5,1.7,1.2,2.5,1.9l2.8-0.8l2.3,4.2l-2.1,1.9
			c0.3,1,0.4,2,0.4,3.1l2.5,1.4l-1.3,4.6l-2.9-0.1c-0.5,0.9-1.2,1.7-1.9,2.4l0.8,2.8l-4.2,2.3l-1.9-2.1c-1,0.3-2,0.4-3.1,0.4
			l-1.4,2.5l-4.6-1.3l0.1-2.9c-0.9-0.5-1.7-1.2-2.5-1.9l-2.8,0.8l-2.3-4.2l2.1-1.9c-0.3-1-0.4-2-0.4-3.1l-2.5-1.4l1.3-4.6l2.9,0.1
			c0.5-0.9,1.2-1.7,1.9-2.4l-0.8-2.8l4.2-2.3L439,185.8L439,185.8z M439.6,192.6c-2.5,1.4-3.4,4.5-2,7c1.4,2.5,4.5,3.4,7,2
			c2.5-1.4,3.3-4.5,2-7C445.2,192.1,442.1,191.2,439.6,192.6L439.6,192.6z"/>
		<path class="st6" d="M439.6,192.6c0.4-0.2,0.7-0.4,1.1-0.5c2-0.6,4.1,0.1,5.4,1.6c0.6,0.7,1,1.6,1.2,2.5c0.1,0.5,0.1,1,0,1.5
			c-0.1,0.5-0.2,1-0.4,1.5c-0.5,1-1.2,1.9-2.2,2.4c-1,0.5-2.1,0.8-3.2,0.6c-0.5-0.1-1-0.2-1.5-0.4c-0.5-0.2-0.9-0.5-1.3-0.8
			c-1.3-1.2-2-2.9-1.8-4.7c0.2-1.2,0.8-2.2,1.6-3C438.9,193.1,439.2,192.8,439.6,192.6c-0.4,0.3-0.8,0.6-1.1,0.8
			c-0.8,0.8-1.3,1.9-1.5,3c-0.2,1.7,0.4,3.4,1.7,4.5c0.4,0.3,0.8,0.6,1.2,0.8c1.4,0.6,3.1,0.6,4.5-0.2c0.9-0.5,1.7-1.3,2.1-2.3
			c0.2-0.4,0.4-0.9,0.4-1.4c0.1-0.5,0.1-1,0-1.4c-0.3-1.7-1.4-3.1-2.9-3.8c-1-0.5-2.2-0.6-3.3-0.3
			C440.4,192.3,440,192.5,439.6,192.6z"/>
		<path class="st6" d="M439,185.8l-0.1-0.1l-0.4-0.4l-1.5-1.6h0L433,186v-0.1c0.3,0.8,0.5,1.8,0.8,2.8l0,0l0,0
			c-0.7,0.7-1.4,1.5-1.9,2.4v0.1h-0.1L429,191l0.1-0.1c-0.4,1.4-0.8,3-1.3,4.6l-0.1-0.1l2.5,1.4h0.1v0.2c0,1,0.1,2.1,0.4,3.1v0.1
			l-0.1,0.1l-2.1,1.9V202l2.3,4.2l-0.2-0.1l2.8-0.8h0.1l0.1,0.1c0.7,0.7,1.5,1.4,2.4,1.9h0.1v0.1c0,0.9-0.1,1.9-0.1,2.9l-0.1-0.1
			l4.6,1.3l-0.2,0.1l1.4-2.5v-0.1h0.1c1,0,2.1-0.1,3-0.4l0,0h0.1l0.1,0.1l1.9,2.1h-0.2l4.2-2.3l-0.1,0.2c-0.3-0.9-0.5-1.9-0.8-2.8
			v-0.1l0.1-0.1c0.8-0.7,1.4-1.5,1.9-2.4V203h0.1l2.9,0.1l-0.1,0.1c0.5-1.6,0.9-3.1,1.3-4.6l0.1,0.2l-2.5-1.4h-0.1v-0.1
			c0-1-0.1-2.1-0.4-3.1v-0.1h0.1l2.1-1.9v0.1l-2.3-4.2l0.1,0.1l-2.8,0.8h-0.1h0c-0.7-0.7-1.5-1.4-2.4-1.9h0V187
			c0.1-1.1,0.1-2,0.2-2.9l0.1,0.1l-4.6-1.3h0.1l-1.4,2.5l0,0l0,0c-0.8,0-1.6,0-2.3,0.2l-0.6,0.1L439,185.8c0.1-0.1,0.2-0.1,0.3-0.1
			l0.6-0.1c0.8-0.2,1.6-0.2,2.3-0.2l0,0l1.4-2.6v-0.1l0,0l4.6,1.3h0.1v0.1c0,0.9-0.1,1.8-0.1,2.9v-0.1c0.9,0.5,1.7,1.2,2.5,1.9h-0.1
			l2.8-0.8h0.1v0.1c0.8,1.3,1.5,2.7,2.4,4.2l0,0.1l-0.1,0.1l-2.1,1.9v-0.1c0.3,1,0.4,2.1,0.4,3.1l-0.1-0.1l2.5,1.4l0.1,0.1v0.1
			l-1.3,4.6v0.1H455l-2.9-0.1l0.1-0.1c-0.5,0.9-1.2,1.7-1.9,2.5v-0.1c0.3,0.9,0.5,1.8,0.8,2.8v0.1l-0.1,0.1l-4.2,2.4h-0.1l-0.1-0.1
			l-1.9-2.1l0.1,0.1l0,0c-1,0.3-2.1,0.4-3.1,0.4l0.1-0.1c-0.5,0.9-1,1.7-1.4,2.5l-0.1,0.1h-0.1l-4.6-1.3h-0.1v-0.1
			c0-1,0.1-2,0.1-2.9l0.1,0.1c-0.9-0.6-1.7-1.2-2.5-2h0.1l-2.8,0.8h-0.1l-0.1-0.1l-2.3-4.2l0-0.1l0.1-0.1l2.1-1.9v0.1
			c-0.3-1-0.4-2.1-0.4-3.1l0.1,0.1l-2.5-1.4h-0.1v-0.1c0.5-1.6,0.9-3.1,1.3-4.6v-0.1h0.2l2.9,0.2h-0.1c0.5-0.9,1.2-1.7,2-2.5v0.1
			c-0.3-1-0.6-1.9-0.8-2.8v-0.1h0.1l4.2-2.3l0,0l0,0l1.4,1.6l0.4,0.4C439,185.6,439,185.7,439,185.8z"/>
		<path class="st1" d="M429.9,127l-22.8-2.7c-1.6-0.2-2.7-1.6-2.5-3.2c0,0,0,0,0,0l3.8-31.5c0.2-1.6,1.6-2.7,3.1-2.6c0,0,0,0,0,0
			l14.4,1.8l9.8,12.9l-2.7,22.8C432.9,126,431.5,127.2,429.9,127z"/>
		<path class="st6" d="M429.9,127c0.2,0,0.3,0,0.5,0c0.5,0,0.9-0.2,1.3-0.5c0.7-0.4,1.1-1.1,1.2-1.9c0.1-0.9,0.2-2,0.4-3.2
			c0.5-4.8,1.3-11.6,2.3-19.9v0.2L425.8,89l0.2,0l-8.3-1l-4.4-0.5c-0.7-0.1-1.5-0.2-2.2-0.2c-0.7,0-1.3,0.3-1.8,0.8
			c-0.3,0.4-0.6,0.8-0.6,1.3c-0.1,0.5-0.1,1-0.2,1.5c-0.1,1-0.2,2.1-0.4,3.1c-0.2,2-0.5,4-0.7,6c-0.5,3.9-0.9,7.7-1.4,11.4
			c-0.2,1.8-0.4,3.6-0.6,5.3c-0.1,0.8-0.2,1.7-0.3,2.5l-0.1,1.2c-0.1,0.4-0.1,0.8-0.1,1.2c0.1,1.1,0.9,2.1,2,2.4
			c0.3,0.1,0.7,0.1,1.1,0.2l4.3,0.5l13,1.6l3.5,0.5l0.9,0.1C429.8,126.9,429.9,126.9,429.9,127l-0.3,0l-0.9-0.1l-3.5-0.4l-13-1.5
			l-4.3-0.5c-0.4,0-0.8-0.1-1.2-0.2c-0.4-0.1-0.8-0.3-1.1-0.5c-0.7-0.5-1.1-1.3-1.2-2.2c0-0.4,0-0.8,0.1-1.3c0-0.4,0.1-0.8,0.1-1.2
			c0.1-0.8,0.2-1.7,0.3-2.5c0.2-1.7,0.4-3.5,0.6-5.3c0.4-3.6,0.9-7.4,1.3-11.4c0.2-2,0.5-4,0.7-6l0.4-3.1c0.1-0.5,0.1-1,0.2-1.6
			c0.1-0.6,0.4-1.1,0.8-1.5c0.6-0.6,1.3-1,2.2-1c0.8,0,1.5,0.2,2.3,0.2l4.4,0.5l8.3,1h0.1l0.1,0.1l9.7,12.9l0,0.1v0.1
			c-1,8.2-1.9,15-2.5,19.8c-0.1,1.2-0.3,2.3-0.4,3.2c-0.2,0.8-0.6,1.5-1.3,1.9c-0.4,0.3-0.9,0.4-1.4,0.4
			C430.3,127,430.1,127,429.9,127z"/>
		<path class="st2" d="M426,88.8l-1,8.9c-0.2,1.5,0.8,2.8,2.3,3c0,0,0,0,0,0l8.5,1L426,88.8z"/>
		<path class="st0" d="M425,98.4c-0.1,1.4,0.7,2.7,2,3.1c0.1,0,0.2,0.1,0.3,0.1c1.1,0.3,8.3,2.5,8.3,2.3s0.3-2.4,0.3-2.4l-8.5-1
			C427.3,100.6,425.2,100.3,425,98.4z"/>
		<path class="st6" d="M423.1,97.1c-1.8,0-3.5-0.1-5.3-0.4c-1.8-0.1-3.5-0.4-5.2-0.8c1.8,0,3.5,0.1,5.3,0.4
			C419.6,96.3,421.4,96.6,423.1,97.1z"/>
		<path class="st6" d="M429.3,102.9c0,0.1-3.9-0.3-8.7-0.8s-8.7-1.1-8.6-1.2c2.9,0.1,5.8,0.4,8.7,0.8
			C425.5,102.2,429.3,102.8,429.3,102.9z"/>
		<path class="st6" d="M430.4,107.3c0,0.1-4.3-0.3-9.5-0.9s-9.4-1.2-9.4-1.3s4.3,0.3,9.5,0.9S430.4,107.1,430.4,107.3z"/>
		<path class="st6" d="M429.9,111.2c0,0.1-4.3-0.3-9.5-0.9s-9.4-1.2-9.4-1.3s4.3,0.3,9.5,0.9S429.9,111.1,429.9,111.2z"/>
		<path class="st6" d="M429.4,115.2c0,0.1-4.3-0.3-9.5-0.9s-9.5-1.2-9.4-1.3s4.3,0.3,9.5,0.9S429.5,115,429.4,115.2z"/>
		<path class="st6" d="M429,119.1c0,0.1-4.3-0.3-9.5-0.9s-9.4-1.2-9.4-1.3s4.3,0.3,9.5,0.9S429,119,429,119.1z"/>
		<path class="st6" d="M435.8,101.6c-1.1,0-2.1,0-3.2-0.2l-3.5-0.4l-2-0.2c-0.8-0.1-1.5-0.5-2-1.2c-0.3-0.3-0.4-0.7-0.4-1.2
			c0-0.4,0-0.8,0.1-1.1c0.1-0.7,0.2-1.4,0.3-2l0.5-3.4c0.1-1.1,0.3-2.1,0.6-3.2c0,1.1,0,2.1-0.2,3.2c-0.1,1-0.2,2.2-0.4,3.5
			c-0.1,0.7-0.1,1.3-0.2,2c-0.2,0.7-0.1,1.4,0.3,1.9c0.8,1.2,2.5,1,3.7,1.2l3.5,0.5C433.8,101.2,434.8,101.4,435.8,101.6z"/>
		<path class="st7" d="M298,50.3c3.3-1.4,5.3-4.7,5.3-8.2c0.4-4.6-3-8.7-7.6-9.1c-4.6-0.4-8.7,3-9.1,7.6c0,0.5,0,0.9,0,1.4
			c-0.1,3.6,2,6.9,5.3,8.3c-12.8,1.9-12.3,15.9-12.3,15.9l30.4,0.1C310.1,66.3,310.8,52.2,298,50.3z"/>
	</g>
	<g id="freepik--Fingerprint--inject-4">
		<circle class="st6" cx="392.5" cy="271.2" r="1.9"/>
		<path class="st6" d="M392.5,271.2c-0.2,0-0.4,0-0.7,0l-1.9,0l-7,0.1l-23,0.1h-7.3l-0.1-0.1c-3.5-6.4-6.6-11.8-9-15.7
			c-1.2-1.9-2.1-3.4-2.9-4.4c-0.3-0.4-0.6-0.7-0.9-1.1c-0.1-0.1-0.2-0.1-0.3-0.2c-0.1,0-0.1,0-0.1,0s0-0.1,0.1-0.1
			c0.1,0,0.2,0.1,0.3,0.2c0.4,0.3,0.7,0.6,1,1c0.8,1,1.8,2.5,3,4.4c2.4,3.8,5.6,9.3,9.1,15.6l-0.2-0.1h7.2l23,0.1l7,0.1h1.9
			C392.1,271.1,392.3,271.1,392.5,271.2z"/>
		<circle class="st6" cx="395.4" cy="113" r="1.9"/>
		<path class="st6" d="M395.4,113c-0.2,0-0.4,0-0.6,0H393l-6.4,0.1l-21.2,0.1h-9.7l0.2-0.1l-9.8,10.8c-1.2,1.3-2.1,2.3-2.9,3.1
			l-0.8,0.8c-0.2,0.2-0.3,0.3-0.3,0.3c0.1-0.1,0.1-0.2,0.2-0.3l0.7-0.9l2.8-3.2l9.7-10.9l0.1-0.1h9.8l21.2,0.1l6.4,0.1l1.7,0.1
			C395,112.9,395.2,112.9,395.4,113z"/>
		<path class="st6" d="M303,322.4c-1.3,1-3.1,0.8-4.1-0.5c-1-1.3-0.8-3.1,0.5-4.1c1.3-1,3.1-0.8,4.1,0.5
			C304.5,319.6,304.3,321.4,303,322.4C303,322.4,303,322.4,303,322.4z"/>
		<path class="st6" d="M300.9,319.7c-0.1,0-1.7-12.7-3.5-28.3s-3.1-28.4-2.9-28.4s1.7,12.7,3.5,28.4S301,319.7,300.9,319.7z"/>
		<circle class="st6" cx="295.1" cy="73.4" r="1.9"/>
		<path class="st6" d="M294.9,73.4c0.1,0,0.3,6.5,0.3,14.6s-0.1,14.6-0.3,14.6s-0.3-6.5-0.3-14.5S294.7,73.4,294.9,73.4z"/>
		<circle class="st6" cx="416" cy="189.5" r="1.9"/>
		<path class="st6" d="M415.4,189.5c0,0.1-8.7,0.3-19.4,0.3s-19.4-0.1-19.4-0.3s8.7-0.3,19.4-0.3S415.4,189.4,415.4,189.5z"/>
		<path class="st6" d="M287.6,274.9h-0.3l-0.7-0.1l-2.9-0.3c-1.3-0.1-2.8-0.3-4.6-0.6s-3.8-0.7-6.1-1.2c-5.4-1.2-10.6-2.9-15.7-5.1
			c-3.1-1.3-6.1-2.7-9-4.3c-3.2-1.7-6.3-3.7-9.2-5.9h0.3l-15.8,7.5l-0.4,0.2l0.1-0.5c0.2-1.3,0.4-2.8,0.7-4.2
			c0.8-5.4,1.7-10.6,2.4-15.6l0.1,0.2c-5.7-5.3-10.4-11.5-14.1-18.3c-2.9-5.4-5.2-11.2-6.8-17.1c-1.1-3.9-1.9-7.9-2.3-12
			c-0.2-1.4-0.2-2.5-0.3-3.3c0-0.4,0-0.6,0-0.9s0-0.3,0-0.3c0,0.1,0,0.2,0,0.3c0,0.2,0,0.5,0.1,0.8c0.1,0.7,0.2,1.8,0.4,3.3
			c0.5,4,1.4,8,2.5,11.9c1.7,5.9,4,11.6,6.9,17c3.7,6.8,8.4,12.9,14,18.1l0.1,0.1v0.1c-0.8,5-1.6,10.2-2.4,15.6
			c-0.2,1.4-0.4,2.9-0.6,4.2l-0.4-0.3l15.8-7.4l0.1-0.1l0.1,0.1c2.9,2.2,6,4.1,9.2,5.9c2.9,1.6,5.9,3.1,9,4.3
			c5.1,2.1,10.3,3.9,15.6,5.1c2.3,0.5,4.3,1,6.1,1.2s3.3,0.6,4.6,0.7l2.9,0.3l0.7,0.1C287.5,274.8,287.5,274.8,287.6,274.9z"/>
		<path class="st7" d="M306,133.4c-9.6-1.7-19.4-1.3-28.8,1.2c-0.3,0.1-0.5,0.4-0.4,0.8c0.1,0.3,0.4,0.5,0.8,0.4
			c9.2-2.4,18.8-2.8,28.2-1.1C306.5,134.8,306.8,133.6,306,133.4z"/>
		<path class="st7" d="M314.1,139.9c-14.6-5.2-30.6-4.6-44.7,1.7c-0.7,0.3-0.1,1.4,0.6,1.1c13.9-6.1,29.5-6.7,43.8-1.6
			C314.5,141.4,314.9,140.2,314.1,139.9L314.1,139.9z"/>
		<path class="st7" d="M319.8,146c-13.6-4.9-29.1-7.2-43.2-2.9c-4.5,1.4-8.7,3.5-12.6,6.2c-0.6,0.5,0,1.6,0.6,1.1
			c12.9-9.1,29.4-9.7,44.4-6.2c3.5,0.8,7,1.8,10.4,3.1C320.2,147.5,320.6,146.3,319.8,146L319.8,146z"/>
		<path class="st7" d="M324.2,152.7c-14.8-8.2-32.9-10.4-48.9-4.4c-5.2,2-10.2,4.7-14.6,8.1c-0.6,0.5,0,1.6,0.6,1.1
			c7.4-5.7,16.1-9.5,25.4-10.9c8.3-1.2,16.8-0.5,24.9,2c4.2,1.3,8.2,3,12,5.1C324.3,154.2,325,153.1,324.2,152.7L324.2,152.7z"/>
		<path class="st7" d="M327.5,159.9c-15.2-12.3-36.4-14.4-54-6c-5.7,2.7-10.9,6.3-15.5,10.6c-0.6,0.6,0.3,1.4,0.9,0.9
			c7.6-7.3,17-12.3,27.3-14.4c9.1-1.8,18.6-1,27.3,2.3c4.8,1.8,9.2,4.4,13.1,7.6C327.2,161.3,328.1,160.4,327.5,159.9L327.5,159.9z"
			/>
		<path class="st7" d="M296.5,152.7c-7.5-0.3-14.9,1.2-21.7,4.4c-7.3,3.6-13.7,8.9-18.6,15.4c-0.5,0.6,0.6,1.3,1.1,0.6
			c9.3-12.3,23.6-19.8,39.2-19.2C297.3,153.9,297.3,152.7,296.5,152.7L296.5,152.7z"/>
		<path class="st7" d="M330,168.4c-5.4-5.9-12.2-10.3-19.8-13c-0.8-0.3-1.1,0.9-0.3,1.2c7.3,2.6,13.9,7,19.2,12.7
			C329.7,169.9,330.6,169,330,168.4L330,168.4z"/>
		<path class="st7" d="M331.5,177.6c-6.5-10.2-16.6-17.8-28.5-20.1c-11.5-2.2-23.3,0.5-32.7,7.6c-5.9,4.5-10.7,10.3-14,17
			c-0.4,0.7,0.7,1.4,1.1,0.6c5.6-11,15-19.9,27-23.3c10.8-2.9,22.3-1.3,31.8,4.6c5.8,3.6,10.7,8.5,14.3,14.3
			C330.8,178.9,331.9,178.3,331.5,177.6L331.5,177.6z"/>
		<path class="st7" d="M332,189.4c-5-20.1-25.4-32.4-45.5-27.4c-6.4,1.6-12.2,4.8-16.9,9.3c-6.7,6.3-11,14.6-13.4,23.3
			c-0.1,0.3,0.2,0.7,0.5,0.7c0.3,0.1,0.6-0.1,0.7-0.4c3.9-14.1,13.2-26.8,27.6-31.2c12-3.6,24.9-0.8,34.4,7.3
			c5.6,5,9.5,11.5,11.4,18.7c0.1,0.3,0.5,0.5,0.8,0.4C331.9,190,332.1,189.7,332,189.4L332,189.4z"/>
		<path class="st7" d="M260.4,203c0.5-9.3,3.1-18.7,9.5-25.8c5.1-5.6,12-9.2,19.5-10.2c7.3-1,14.7,0.3,21.2,3.6
			c6.7,3.4,12,9.1,14.9,16.1c3.1,7.6,2.5,15.8,1.2,23.7c-0.2,1.3-0.3,2.6-0.1,3.8c0.1,0.8,1.3,0.5,1.2-0.3c-0.1-1.8,0-3.5,0.4-5.3
			c0.3-1.8,0.5-3.6,0.6-5.4c0.2-2.7,0.3-5.3,0.1-8c-0.2-2.4-0.7-4.7-1.5-7c-2.5-7.4-7.5-13.7-14.2-17.7c-6.5-3.9-14.1-5.7-21.6-5.1
			c-7.7,0.5-15,3.7-20.7,9c-6.7,6.4-10.2,15.2-11.3,24.3c-0.2,1.4-0.3,2.8-0.4,4.2C259.1,203.9,260.3,203.9,260.4,203L260.4,203z"/>
		<path class="st7" d="M324,219.9c-0.6-1.9-0.9-4-0.9-6c0.1-1.3,0.3-2.5,0.4-3.8c0.3-2.4,0.5-4.8,0.7-7.2c0.2-1.8,0.3-3.5,0.4-5.3
			c0-0.3-0.4-0.6-0.7-0.5c-0.3,0-0.5,0.3-0.5,0.5c0,1.8-0.1,3.5-0.4,5.3c-0.2,2.5-0.5,4.9-0.7,7.4c-0.1,1.2-0.3,2.5-0.4,3.7
			c0,2.1,0.4,4.2,1,6.2C323,221,324.2,220.7,324,219.9L324,219.9z"/>
		<path class="st7" d="M265,205.8c0.2-13.2,5.1-27.1,17.6-33.2c9.7-4.5,21.1-3.3,29.6,3.2c4.9,3.9,8.4,9.3,9.8,15.4
			c0.2,0.8,1.4,0.4,1.2-0.3c-2.7-11.2-11.9-19.8-23.3-21.7c-11.4-2-22.9,2.8-29.5,12.4c-4.9,7.1-6.6,15.8-6.8,24.3
			c0,0.3,0.4,0.6,0.7,0.5C264.7,206.3,265,206.1,265,205.8L265,205.8z"/>
		<path class="st7" d="M268.9,224.5c0.3,0,0.6-0.4,0.5-0.7c0-0.3-0.3-0.5-0.5-0.5c-0.3,0-0.6,0.4-0.5,0.7
			C268.4,224.3,268.7,224.5,268.9,224.5z"/>
		<path class="st7" d="M320.8,223.3c-3.1-10.5,0.9-21.5-1.3-32.1c-0.9-4.7-3.3-8.9-6.8-12c-3.5-2.9-7.8-4.9-12.3-5.6
			c-7-1.3-14.7-0.4-20.6,3.9c-5.5,4-8.5,9.9-10.5,16.2c-3,9.9-2.9,20.4-1,30.4c0.1,0.8,1.4,0.5,1.2-0.3c-1.9-8.9-1.8-18.1,0.2-27
			c1.5-6,3.9-12,8.4-16.3c5-4.8,11.5-6.5,18.4-6.1c9.6,0.6,18.7,5.8,21.4,15.5c3,11.1-1.6,22.7,1.7,33.7c0.1,0.3,0.5,0.5,0.8,0.4
			C320.7,223.8,320.8,223.5,320.8,223.3L320.8,223.3z"/>
		<path class="st7" d="M272.4,198.1c-1.4,10.4-0.4,20.9,0.6,31.2c0.1,0.8,1.3,0.8,1.3,0c-1-10.3-2-20.9-0.6-31.2
			C273.7,197.3,272.5,197.3,272.4,198.1z"/>
		<path class="st7" d="M318,226.7c-4.4-4.3-4.3-10.9-3.3-16.5c1-6,2.7-12,0.9-18.1c-3-10-12.8-16.5-23.2-15.2
			c-5.5,0.6-10.6,3.5-14,7.9c-0.5,0.6,0.6,1.3,1.1,0.6c6.2-8.3,18.9-9.7,27.2-3.7c4,3,6.9,7.3,8,12.1c1.4,6.2-0.8,12.4-1.6,18.6
			c-0.7,5.3,0,11.2,4,15.1C317.6,228.1,318.5,227.2,318,226.7L318,226.7z"/>
		<path class="st7" d="M314.1,228.4c-4-4-4.5-9.8-3.9-15.1c0.4-3.1,1-6.1,1.4-9.2c0.6-2.7,0.8-5.6,0.8-8.4
			c-0.7-9.1-9.6-15.1-18.2-15.1c-7.6,0-13.5,5.7-16.5,12.3c-0.8,1.9-1.3,3.9-1.5,5.9c-0.5,4.7-0.5,9.4,0,14.1
			c0.6,6.7,1.2,13.4,1.7,20.1c0,0.8,1.3,0.8,1.3,0c-0.3-4.8-0.8-9.5-1.2-14.3c-0.7-7.8-2.1-16.2,0.3-23.9
			c1.8-5.8,6.9-11.3,12.9-12.6c8.6-2,19.2,4.4,19.9,13.6c0.3,3.2-0.5,6.5-1,9.7s-1.1,6.2-1.4,9.3c-0.4,5.2,0.5,10.8,4.4,14.6
			C313.8,229.8,314.7,229,314.1,228.4L314.1,228.4z"/>
		<path class="st7" d="M311.5,232c-5.9-7-5.9-16.2-4.3-24.8c0.9-4.6,2.8-9.5,1.3-14.1c-1.2-3.4-3.9-6-7.2-7.3
			c-6.7-2.8-15.3-0.1-18.8,6.3c-1.7,3.2-2.3,7.1-2.5,10.7c-0.2,3.1-0.3,6.2-0.1,9.2c0.4,8,1.1,16.6,4.5,24c0.3,0.7,1.4,0.1,1.1-0.6
			c-2.9-6.4-3.7-13.9-4.2-20.9c-0.4-6.3-0.6-13,1.2-19c2.3-7.3,10.1-11.2,17.4-8.9c0,0,0.1,0,0.1,0c3.7,1.2,6.9,4.1,7.7,8
			c0.9,4.6-1.1,9.4-1.9,13.9c-1.4,8.5-0.9,17.4,4.9,24.3C311.1,233.5,312,232.6,311.5,232L311.5,232z"/>
		<path class="st7" d="M308.3,235c-2.4-4.5-4.4-9.2-5.8-14.1c-0.7-2.5-1-5-1-7.6c0.1-2.6,0.6-5.1,1.4-7.5c1.1-3.9,2.1-8.1,0.3-11.9
			c-1.7-3.3-5.4-5.1-9.1-4.3c-4.5,0.8-7.6,4.6-8.9,8.8c-0.3,0.8,1,1.1,1.2,0.3c1.2-3.8,4-7.2,8.1-7.9c3.8-0.8,7.5,1.6,8.3,5.4
			c0,0.2,0.1,0.4,0.1,0.6c0.7,4.3-1.4,8.5-2.1,12.7c-0.7,4.1-0.4,8.3,0.8,12.3c1.5,4.7,3.4,9.3,5.8,13.7
			C307.6,236.4,308.7,235.7,308.3,235L308.3,235z"/>
		<path class="st7" d="M288.4,219.4c1,7.2,4.1,13.7,6.9,20.3c0.3,0.7,1.5,0.4,1.2-0.3c-2.7-6.5-5.9-12.9-6.8-20
			C289.6,218.6,288.3,218.6,288.4,219.4L288.4,219.4z"/>
		<path class="st7" d="M303.9,236.5c-4-6.6-6.3-14-6.6-21.7c-0.2-3.8,0.2-7.6,1-11.4c0.6-2.9,1.8-6.9-1.2-9s-6,1.1-7.1,3.8
			c-0.3,0.7,0.8,1.4,1.1,0.6c0.7-1.6,2-3.9,4.1-3.8c3,0.2,2.9,4,2.4,6c-1,4.1-1.5,8.3-1.5,12.5c0.1,8.3,2.5,16.5,6.8,23.6
			C303.2,237.8,304.3,237.2,303.9,236.5L303.9,236.5z"/>
		<path class="st7" d="M300.5,237.3c-6.8-11.3-8.1-24.7-5.8-37.6c0.1-0.8-1.1-1.1-1.2-0.3c-2.3,13.2-1.1,26.9,5.9,38.5
			c0.2,0.3,0.6,0.3,0.9,0.1C300.5,237.9,300.6,237.6,300.5,237.3L300.5,237.3z"/>
		<path class="st7" d="M290,237.9c-7-14.5-5.7-34.4-5.7-34.6l1,0.1c0,0.2-1.3,19.9,5.6,34.1L290,237.9z"/>
		<path class="st7" d="M289.1,200.4c-1.6,5-2.1,10.2-1.4,15.4c0.1,0.8,1.3,0.4,1.2-0.3c-0.7-5-0.2-10,1.4-14.7
			C290.6,200,289.4,199.7,289.1,200.4z"/>
		<path class="st7" d="M284.7,200.1l-0.1,0.7c0,0.1,0,0.2,0,0.3c0,0.1,0,0.2,0.1,0.2c0,0.1,0.1,0.1,0.2,0.2c0.1,0.1,0.1,0.1,0.2,0.1
			h0.2c0.1,0,0.2,0,0.3-0.1l0.1-0.1c0.1-0.1,0.1-0.2,0.2-0.3l0.1-0.7c0-0.1,0-0.2,0-0.3c0-0.1,0-0.2-0.1-0.2c0-0.1-0.1-0.1-0.2-0.2
			c-0.1-0.1-0.1-0.1-0.2-0.1h-0.2c-0.1,0-0.2,0-0.3,0.1l-0.1,0.1C284.8,199.9,284.8,200,284.7,200.1L284.7,200.1z"/>
		<path class="st7" d="M276.8,186.5c-1.8,2.1-3.2,4.5-4,7.1c-0.1,0.3,0.1,0.7,0.4,0.8s0.7-0.1,0.8-0.4l0,0c0.8-2.4,2-4.6,3.6-6.5
			C278.2,186.9,277.3,186,276.8,186.5L276.8,186.5z"/>
		<path class="st7" d="M323.4,193.7l0.1,1c0,0.1,0,0.2,0,0.2c0.1,0.2,0.3,0.4,0.6,0.4c0.2,0,0.3-0.1,0.5-0.2
			c0.1-0.1,0.2-0.3,0.2-0.4l-0.1-1c0-0.1,0-0.2,0-0.2c0-0.1-0.1-0.1-0.1-0.2c-0.1-0.1-0.3-0.2-0.4-0.2c-0.2,0-0.3,0.1-0.4,0.2
			C323.4,193.4,323.4,193.5,323.4,193.7L323.4,193.7z"/>
		<path class="st7" d="M307.8,154.5c-2.7-0.8-5.6-1.4-8.4-1.6c-0.3,0-0.7,0.2-0.7,0.5c0,0.3,0.2,0.7,0.5,0.7c0.1,0,0.1,0,0.2,0
			c2.7,0.3,5.5,0.8,8.1,1.6C308.2,156,308.5,154.7,307.8,154.5z"/>
		<path class="st7" d="M263.5,210.7c0,2,0.2,4.1,0.5,6.1c0.1,0.3,0.4,0.5,0.8,0.4c0.3-0.1,0.5-0.4,0.4-0.8c-0.3-1.9-0.4-3.8-0.4-5.7
			c0-0.3-0.4-0.6-0.7-0.5C263.8,210.2,263.6,210.4,263.5,210.7z"/>
		<path class="st7" d="M258.7,206.9l-0.1,1.2c0,0.3,0.3,0.6,0.6,0.6c0,0,0,0,0,0c0.2,0,0.3-0.1,0.4-0.2c0.1-0.1,0.2-0.3,0.2-0.4
			l0.1-1.2c0-0.2-0.1-0.3-0.2-0.4c-0.1-0.1-0.3-0.2-0.4-0.2c-0.2,0-0.3,0.1-0.4,0.2C258.8,206.6,258.7,206.7,258.7,206.9z"/>
		<path class="st7" d="M271,137.5l2.9-1.3c0.3-0.2,0.3-0.6,0.1-0.9c-0.2-0.2-0.5-0.3-0.7-0.2l-2.9,1.3c-0.3,0.2-0.3,0.6-0.1,0.9
			C270.4,137.6,270.7,137.6,271,137.5z"/>
		<path class="st7" d="M331.2,192.3c0.6,2.2,0.9,4.6,0.8,6.9c0,0.8,1.2,0.8,1.3,0c0.1-2.4-0.1-4.9-0.8-7.2c-0.1-0.3-0.5-0.5-0.8-0.4
			C331.3,191.8,331.1,192,331.2,192.3z"/>
		<path class="st7" d="M332.3,180.4l0.6,2c0.1,0.3,0.4,0.5,0.8,0.4c0.3-0.1,0.5-0.4,0.4-0.8l-0.6-2c-0.1-0.3-0.4-0.5-0.8-0.4
			C332.4,179.7,332.2,180.1,332.3,180.4L332.3,180.4L332.3,180.4z"/>
		<path class="st6" d="M367.6,183.2c0,0,0-0.4-0.1-1.2s0-1.9-0.2-3.4c-0.3-4.4-1-8.8-2.1-13.1c-0.8-3.1-1.8-6.1-3-9.1
			c-1.4-3.5-3.1-6.9-5-10.2c-4.8-8-11-14.9-18.4-20.6c-14-10.7-31.5-15.8-49.1-14.5c-3.3,0.2-6.5,0.7-9.7,1.4
			c-3.3,0.7-6.5,1.6-9.7,2.8c-13.4,4.9-25.1,13.7-33.6,25.2c-2.2,3-4.2,6.2-5.9,9.5c-0.9,1.6-1.6,3.4-2.4,5.1s-1.4,3.5-2,5.3
			c-4.9,14.8-4.9,30.8,0,45.6c0.6,1.8,1.3,3.6,2,5.3s1.5,3.5,2.4,5.1c1.7,3.3,3.7,6.5,5.9,9.5c8.5,11.5,20.2,20.3,33.6,25.2
			c3.2,1.1,6.4,2.1,9.7,2.8c3.2,0.7,6.4,1.1,9.7,1.4c6.2,0.5,12.5,0.1,18.6-1c11.1-2.1,21.5-6.7,30.5-13.5
			c7.4-5.6,13.6-12.6,18.4-20.6c1.9-3.3,3.6-6.7,5-10.2c1.2-3,2.2-6,3-9.1c1.1-4.3,1.8-8.7,2.1-13.1c0.1-1.5,0.1-2.7,0.2-3.4
			S367.6,183.3,367.6,183.2c0,0.1,0,1.7-0.1,4.7c-0.4,7.6-2.1,15.2-4.9,22.3c-1.4,3.5-3.1,7-5,10.3c-4.8,8-11,15-18.4,20.7
			c-14.1,10.8-31.7,16-49.4,14.7c-3.3-0.2-6.6-0.7-9.8-1.4c-3.3-0.7-6.6-1.6-9.7-2.8c-13.5-4.9-25.3-13.7-33.9-25.4
			c-2.2-3-4.2-6.2-5.9-9.6c-0.9-1.7-1.7-3.4-2.4-5.1s-1.4-3.5-2-5.4c-5-14.9-5-31,0-45.9c0.6-1.8,1.3-3.6,2-5.4s1.5-3.5,2.4-5.1
			c1.7-3.3,3.7-6.5,5.9-9.6c8.5-11.6,20.3-20.4,33.8-25.4c3.2-1.1,6.4-2.1,9.7-2.8c3.2-0.7,6.5-1.1,9.8-1.3c6.3-0.5,12.6-0.1,18.8,1
			c11.1,2.1,21.6,6.8,30.6,13.6c7.4,5.7,13.7,12.7,18.4,20.7c1.9,3.3,3.6,6.7,5,10.3c2.8,7.1,4.5,14.6,4.9,22.3
			C367.6,181.6,367.6,183.2,367.6,183.2z"/>
		<path class="st6" d="M295.1,263.5c-44.9,0-81.2-36.4-81.2-81.2c0-44.8,36.4-81.2,81.2-81.2c0.8,0,1.5,0.7,1.5,1.5
			s-0.7,1.5-1.5,1.5c-43.2,0-78.2,35-78.2,78.2s35,78.2,78.2,78.2s78.2-35,78.2-78.2c0,0,0,0,0,0c0-0.8,0.7-1.5,1.5-1.5
			s1.5,0.7,1.5,1.5C376.3,227.1,339.9,263.4,295.1,263.5z"/>
	</g>
</g>
</svg>
