<?xml version="1.0" encoding="utf-8"?>
<!-- Generator: Adobe Illustrator 24.2.1, SVG Export Plug-In . SVG Version: 6.00 Build 0)  -->
<svg version="1.1" id="Calque_1" xmlns="http://www.w3.org/2000/svg" xmlns:xlink="http://www.w3.org/1999/xlink" x="0px" y="0px"
	 viewBox="0 0 300 300" style="enable-background:new 0 0 300 300;" xml:space="preserve">
<style type="text/css">
	.st0{fill:#FFD7D7;}
</style>
<g id="_x36_40fb903-7c97-3a8b-d0a7-369102908d0a" transform="matrix(0.8499999999999999,0,0,0.8499999999999999,22.500006484985377,22.50005836486818)">
	<g>
		<path class="st0" d="M150,318.2c44.4,0,86.1-17.1,117.5-48.4c31.4-31.4,48.4-73,48.4-117.5c0-44.4-17.1-86.1-48.4-117.5
			c-31.4-31.4-73-48.4-117.5-48.4S63.9,3.5,32.5,34.9c-31.4,31.4-48.4,73-48.4,117.5s17.1,86.1,48.4,117.5S105.6,318.2,150,318.2z
			 M159.5,290.1c-3.2,0.4-6.3,0.4-9.5,0.4c-4.4,0-8.7-0.4-13.1-0.8c-14.3-22.2-25-46-31.4-71h70.2c2.4,6,6.7,11.5,11.9,15.1
			C181,253.5,171.4,272.2,159.5,290.1z M197.2,282.1c7.5-13.9,13.5-27.8,18.3-42.5c11.5-2.4,20.6-10.3,25-21H271
			C255.2,247.6,228.6,270.2,197.2,282.1z M287.7,152.4c0,13.1-2,25.8-5.2,38.1h-42.9c-2.4-5.2-6.3-9.9-11.1-13.5
			c0.8-8.7,1.2-17.5,1.2-26.2c0-12.3-0.8-24.6-2.4-36.5h54.8C286.1,126.2,287.7,139.3,287.7,152.4L287.7,152.4z M271,86.1h-48.4
			c-5.2-21.8-12.7-42.5-23-62.3C229.8,35.3,255.2,57.9,271,86.1z M202,150.8c0,6.7-0.4,13.5-0.8,20.2c-11.1,2.4-20.2,9.5-24.6,19.4
			H100c-1.6-11.9-2.8-24.2-2.8-36.1c0-7.5,0.4-15.1,1.2-22.6c10.3-2,18.7-8.7,23.8-17.5h77.4C201.2,126.2,202,138.5,202,150.8
			L202,150.8z M139.7,15c3.6-0.4,7.1-0.4,10.3-0.4c4,0,7.9,0,11.9,0.4c14.3,22.2,25,46,31.4,71h-69.1c-2.4-6.7-6.7-12.7-12.3-17.1
			C119,50,128.2,32.1,139.7,15L139.7,15z M102,23c-6.7,12.7-12.7,26.2-17.5,39.7c-12.3,2.4-22.2,11.5-26.2,23h-29
			C44.8,57.5,70.6,34.9,102,23z M12.3,152.4c0-13.1,2-26.2,5.6-38.1h43.3c2.4,4.4,6,8.3,9.9,11.5c-0.8,9.5-1.6,19-1.6,28.6
			c0,12.3,0.8,24.2,2.4,36.1h-54C13.9,178.1,12.3,165.4,12.3,152.4z M76.6,218.2c5.2,21.4,12.7,42.5,23,62.3
			c-30.2-11.9-55.2-34.1-70.6-62.3H76.6z"/>
	</g>
</g>
</svg>
