<svg id="Calque_1" data-name="Calque 1" xmlns="http://www.w3.org/2000/svg" viewBox="0 0 277.42 166.9"><defs><style>.cls-1{fill:#1d71b8;}</style></defs><path class="cls-1" d="M27.94,167.76h0a30.2,30.2,0,0,1-13.51-40.41L67.76,20.7A30.2,30.2,0,0,1,108.18,7.19h0a30.21,30.21,0,0,1,13.5,40.42L68.26,154.36A30.08,30.08,0,0,1,27.94,167.76Z" transform="translate(-11.29 -4.05)"/><path class="cls-1" d="M123.17,167.76h0a30.2,30.2,0,0,1-13.5-40.41L163,20.7A30.2,30.2,0,0,1,203.41,7.19h0a30.21,30.21,0,0,1,13.5,40.42L163.59,154.26A30.12,30.12,0,0,1,123.17,167.76Z" transform="translate(-11.29 -4.05)"/><circle class="cls-1" cx="237.3" cy="123.6" r="40.12"/></svg>